<svg width="32" height="32" viewBox="0 0 32 32" fill="none" xmlns="http://www.w3.org/2000/svg">
<path d="M2.66931 16.0026C2.67086 22.5618 7.44051 28.1467 13.9186 29.1746V19.856H10.536V16.0026H13.9226V13.0693C13.7712 11.6794 14.246 10.2941 15.2182 9.28922C16.1903 8.28434 17.5591 7.764 18.9533 7.86931C19.954 7.88547 20.9522 7.9746 21.94 8.13598V11.4146H20.2546C19.6744 11.3387 19.0911 11.5303 18.669 11.9355C18.2469 12.3408 18.0317 12.9158 18.084 13.4986V16.0026H21.7786L21.188 19.8573H18.084V29.1746C25.09 28.0674 30.0028 21.669 29.2633 14.6147C28.5239 7.56047 22.391 2.31988 15.3077 2.68955C8.22446 3.05921 2.67044 8.90972 2.66931 16.0026Z" fill="#121212" fill-opacity="0.3"/>
</svg>
