<svg width="64" height="64" viewBox="0 0 64 64" fill="none" xmlns="http://www.w3.org/2000/svg">
<circle cx="32" cy="32" r="32" fill="url(#paint0_linear_59_948)"/>
<path d="M36.5996 21.0402C36.5462 21.3736 36.5196 21.7069 36.5196 22.0402C36.5196 25.0402 38.9462 27.4656 41.9329 27.4656C42.2662 27.4656 42.5862 27.4269 42.9196 27.3736V38.1322C42.9196 42.6536 40.2529 45.3336 35.7196 45.3336H25.8676C21.3329 45.3336 18.6662 42.6536 18.6662 38.1322V28.2669C18.6662 23.7336 21.3329 21.0402 25.8676 21.0402H36.5996ZM36.8676 29.1469C36.5062 29.1069 36.1476 29.2669 35.9329 29.5602L32.7076 33.7336L29.0129 30.8269C28.7862 30.6536 28.5196 30.5856 28.2529 30.6136C27.9876 30.6536 27.7476 30.7989 27.5862 31.0122L23.6409 36.1469L23.5596 36.2669C23.3329 36.6922 23.4396 37.2389 23.8396 37.5336C24.0262 37.6536 24.2262 37.7336 24.4529 37.7336C24.7609 37.7469 25.0529 37.5856 25.2396 37.3336L28.5862 33.0256L32.3862 35.8802L32.5062 35.9589C32.9329 36.1856 33.4662 36.0802 33.7729 35.6789L37.6262 30.7069L37.5729 30.7336C37.7862 30.4402 37.8262 30.0669 37.6796 29.7336C37.5342 29.4002 37.2129 29.1736 36.8676 29.1469ZM42.1197 18.6665C43.893 18.6665 45.333 20.1065 45.333 21.8798C45.333 23.6532 43.893 25.0932 42.1197 25.0932C40.3464 25.0932 38.9064 23.6532 38.9064 21.8798C38.9064 20.1065 40.3464 18.6665 42.1197 18.6665Z" fill="white"/>
<defs>
<linearGradient id="paint0_linear_59_948" x1="58" y1="-9" x2="7" y2="72.5" gradientUnits="userSpaceOnUse">
<stop stop-color="#2D8DFE"/>
<stop offset="1" stop-color="#71ACF2"/>
</linearGradient>
</defs>
</svg>
