<svg width="24" height="24" viewBox="0 0 24 24" fill="none" xmlns="http://www.w3.org/2000/svg">
<path d="M10.3999 3.19995C5.9887 3.19995 2.3999 6.25035 2.3999 9.99995C2.3999 11.2712 2.809 12.4983 3.5874 13.5703L3.12178 17.2125L6.33896 15.8609C7.37252 16.3787 8.5292 16.6761 9.7374 16.7609C10.3293 19.1163 12.7876 20.8 15.5999 20.8C16.7619 20.8 17.8177 20.4709 18.7437 19.975L21.0702 21.2812L20.7155 18.2671C21.243 17.5072 21.5999 16.6284 21.5999 15.6656C21.5999 13.6144 20.2239 11.9104 18.2827 11.0796C18.3526 10.7186 18.3999 10.3578 18.3999 9.99995C18.3999 6.25035 14.8111 3.19995 10.3999 3.19995ZM7.6499 7.33745C8.2723 7.33745 8.7749 7.84009 8.7749 8.46089C8.7749 9.08169 8.2715 9.58745 7.6499 9.58745C7.0283 9.58745 6.5249 9.08329 6.5249 8.46089C6.5249 7.84009 7.0283 7.33745 7.6499 7.33745ZM13.7874 7.33745C14.409 7.33745 14.9124 7.84009 14.9124 8.46089C14.9124 9.08329 14.409 9.58745 13.7874 9.58745C13.1642 9.58745 12.6624 9.08329 12.6624 8.46089C12.6624 7.83929 13.1658 7.33745 13.7874 7.33745ZM15.5999 12.1328C18.1116 12.1328 19.9999 13.7907 19.9999 15.6656C19.9999 16.3762 19.7421 17.0343 19.2733 17.6046L19.0577 17.8671L19.0968 18.2046L19.114 18.3484L18.7593 18.15L18.353 18.4125C17.6058 18.8977 16.6506 19.2 15.5999 19.2C13.0882 19.2 11.1999 17.5405 11.1999 15.6656C11.1999 13.7917 13.0883 12.1328 15.5999 12.1328ZM13.589 13.9437C13.117 13.9437 12.7374 14.3249 12.7374 14.7953C12.7374 15.2657 13.1178 15.6484 13.589 15.6484C14.0586 15.6484 14.4413 15.2657 14.4421 14.7953C14.4421 14.3249 14.0594 13.9437 13.589 13.9437ZM17.6265 13.9437C17.1569 13.9437 16.7749 14.3249 16.7749 14.7953C16.7749 15.2657 17.1561 15.6484 17.6265 15.6484C18.0977 15.6484 18.4812 15.2657 18.4812 14.7953C18.4812 14.3249 18.0977 13.9437 17.6265 13.9437Z" fill="black"/>
</svg>
