<svg width="48" height="48" viewBox="0 0 48 48" fill="none" xmlns="http://www.w3.org/2000/svg">
<circle cx="24" cy="24" r="23.5" stroke="#DEDEDE"/>
<path d="M24.002 33.0409C21.542 33.0409 21.252 33.0279 20.292 32.9859C19.5433 32.9613 18.8044 32.8091 18.107 32.5359C16.9003 32.0663 15.9461 31.1117 15.477 29.9049C15.2143 29.2049 15.0726 28.4654 15.058 27.7179C15.002 26.7599 15.002 26.4459 15.002 24.0049C15.002 21.5379 15.015 21.2499 15.058 20.2949C15.0729 19.5484 15.2146 18.8099 15.477 18.1109C15.9456 16.9024 16.9013 15.9471 18.11 15.4789C18.8086 15.2151 19.5473 15.073 20.294 15.0589C21.249 15.0049 21.563 15.0049 24.002 15.0049C26.482 15.0049 26.767 15.0179 27.712 15.0589C28.4605 15.0731 29.2012 15.2152 29.902 15.4789C31.1103 15.9476 32.0658 16.9028 32.535 18.1109C32.8021 18.8201 32.9445 19.5701 32.956 20.3279C33.012 21.2859 33.012 21.5989 33.012 24.0389C33.012 26.4789 32.998 26.7989 32.956 27.7459C32.9411 28.4941 32.799 29.2343 32.536 29.9349C32.0656 31.1426 31.11 32.0975 29.902 32.5669C29.2022 32.8291 28.4631 32.9707 27.716 32.9859C26.761 33.0409 26.448 33.0409 24.002 33.0409ZM23.968 16.5879C21.522 16.5879 21.268 16.5999 20.313 16.6429C19.7429 16.6504 19.1784 16.7556 18.644 16.9539C17.8547 17.2559 17.2302 17.8779 16.925 18.6659C16.7252 19.2062 16.62 19.7769 16.614 20.3529C16.561 21.3219 16.561 21.5759 16.561 24.0049C16.561 26.4049 16.57 26.6959 16.614 27.6589C16.6229 28.2291 16.728 28.7937 16.925 29.3289C17.2306 30.1164 17.855 30.7379 18.644 31.0399C19.1781 31.2395 19.7428 31.3447 20.313 31.3509C21.281 31.4069 21.536 31.4069 23.968 31.4069C26.421 31.4069 26.675 31.3949 27.622 31.3509C28.1924 31.3439 28.7573 31.2387 29.292 31.0399C30.0764 30.7353 30.6969 30.1152 31.002 29.3309C31.2014 28.7901 31.3065 28.2192 31.313 27.6429H31.324C31.367 26.6869 31.367 26.4319 31.367 23.9889C31.367 21.5459 31.356 21.2889 31.313 20.3339C31.304 19.7643 31.1988 19.2004 31.002 18.6659C30.6976 17.8805 30.077 17.2592 29.292 16.9539C28.7574 16.7546 28.1924 16.6494 27.622 16.6429C26.655 16.5879 26.402 16.5879 23.968 16.5879ZM24.002 28.6239C22.1319 28.6251 20.4454 27.4996 19.7288 25.7723C19.0123 24.0451 19.4069 22.0562 20.7286 20.7333C22.0503 19.4105 24.0388 19.0142 25.7667 19.7292C27.4946 20.4443 28.6215 22.1299 28.622 23.9999C28.6192 26.5509 26.553 28.6189 24.002 28.6239ZM24.002 20.9979C22.3451 20.9979 21.002 22.341 21.002 23.9979C21.002 25.6547 22.3451 26.9979 24.002 26.9979C25.6588 26.9979 27.002 25.6547 27.002 23.9979C26.9981 22.3426 25.6572 21.0017 24.002 20.9979ZM28.802 20.2849C28.2074 20.2827 27.7269 19.7995 27.728 19.2049C27.7291 18.6103 28.2114 18.1289 28.806 18.1289C29.4005 18.1289 29.8828 18.6103 29.884 19.2049C29.8842 19.4917 29.7702 19.7669 29.5672 19.9696C29.3642 20.1722 29.0888 20.2857 28.802 20.2849Z" fill="#146764"/>
</svg>
