<svg width="48" height="48" viewBox="0 0 48 48" fill="none" xmlns="http://www.w3.org/2000/svg">
<circle cx="24" cy="24" r="23.5" stroke="#DEDEDE"/>
<path d="M25 33H21V21H25V23C25.8526 21.9153 27.1456 21.2686 28.525 21.237C31.0056 21.2508 33.0072 23.2694 33 25.75V33H29V26.25C28.84 25.1326 27.8818 24.3036 26.753 24.306C26.2593 24.3216 25.7932 24.5378 25.4624 24.9046C25.1316 25.2715 24.9646 25.7573 25 26.25V33ZM19 33H15V21H19V33ZM17 19C15.8954 19 15 18.1046 15 17C15 15.8954 15.8954 15 17 15C18.1046 15 19 15.8954 19 17C19 17.5304 18.7893 18.0391 18.4142 18.4142C18.0391 18.7893 17.5304 19 17 19Z" fill="#146764"/>
</svg>
