<svg width="486" height="400" viewBox="0 0 486 400" fill="none" xmlns="http://www.w3.org/2000/svg">
<rect x="0.5" y="0.5" width="485" height="399" rx="7.5" fill="#D9DBE9" stroke="#6E7191"/>
<path d="M250.256 183.334C255.884 183.334 259.666 187.27 259.666 193.147V206.837C259.666 207.089 259.621 207.314 259.608 207.557C259.599 207.699 259.601 207.84 259.589 207.982C259.583 208.045 259.564 208.104 259.558 208.167C259.503 208.69 259.418 209.19 259.299 209.675C259.269 209.805 259.234 209.93 259.199 210.057C259.066 210.527 258.909 210.975 258.721 211.404C258.666 211.524 258.606 211.639 258.549 211.757C258.346 212.165 258.126 212.557 257.871 212.92L257.624 213.24C257.359 213.584 257.083 213.912 256.769 214.21C256.668 214.307 256.553 214.39 256.446 214.482C256.124 214.759 255.796 215.024 255.434 215.25C255.304 215.332 255.161 215.392 255.028 215.465C254.659 215.669 254.288 215.867 253.883 216.02C253.716 216.084 253.531 216.117 253.358 216.172C252.959 216.295 252.566 216.424 252.138 216.497C252.03 216.516 251.919 216.529 251.806 216.54L251.123 216.589C250.833 216.61 250.558 216.667 250.256 216.667H235.729C235.103 216.667 234.504 216.604 233.926 216.509C233.904 216.505 233.884 216.502 233.864 216.499C231.609 216.11 229.738 215.022 228.426 213.38C228.411 213.38 228.411 213.364 228.396 213.349C227.078 211.689 226.333 209.457 226.333 206.837V193.147C226.333 187.27 230.118 183.334 235.729 183.334H250.256ZM250.256 185.659H235.729C231.434 185.659 228.659 188.604 228.659 193.147V206.837C228.659 208.112 228.896 209.25 229.301 210.235C229.353 210.174 232.581 206.237 232.596 206.224C233.749 204.907 235.914 202.944 238.756 204.132C239.439 204.415 240.039 204.814 240.589 205.164C241.544 205.802 242.106 206.102 242.689 206.052C242.931 206.019 243.158 205.947 243.373 205.814C244.303 205.24 246.931 201.407 247.089 201.199C248.906 198.832 251.706 198.199 254.039 199.599C254.196 199.692 254.835 200.131 255.529 200.625L256.052 201.001C256.572 201.379 257.062 201.747 257.341 201.984V193.147C257.341 188.604 254.566 185.659 250.256 185.659ZM237.131 190C238.294 190 239.347 190.489 240.101 191.269C240.859 192.022 241.334 193.059 241.334 194.191C241.334 196.45 239.444 198.333 237.175 198.333C235.18 198.333 233.48 196.876 233.099 194.989C233.036 194.706 233 194.415 233 194.114C233 191.84 234.848 190 237.131 190Z" fill="#6E7191"/>
</svg>
