<svg width="24" height="24" viewBox="0 0 24 24" fill="none" xmlns="http://www.w3.org/2000/svg">
<path d="M12.0001 1.59998C11.5585 1.59998 11.2001 1.95838 11.2001 2.39998V2.53748C11.2001 2.91988 10.9308 3.26105 10.5532 3.32185C10.37 3.35145 10.1887 3.38574 10.0095 3.42654C9.63827 3.51134 9.26289 3.30118 9.11729 2.94998L9.06416 2.82498C8.89536 2.41698 8.42765 2.22256 8.01885 2.39216C7.61085 2.56096 7.41644 3.02868 7.58604 3.43748L7.63916 3.5656C7.78636 3.9176 7.66865 4.33431 7.34385 4.53591C7.18705 4.63351 7.03407 4.73576 6.88447 4.84216C6.57407 5.06376 6.1447 5.01333 5.8751 4.74373L5.77822 4.64685C5.46542 4.33405 4.95897 4.33405 4.64697 4.64685C4.33497 4.95965 4.33497 5.4661 4.64697 5.7781L4.74385 5.87498C5.01345 6.14458 5.06389 6.57315 4.84229 6.88435C4.73589 7.03395 4.63364 7.18693 4.53604 7.34373C4.33444 7.66853 3.91696 7.787 3.56416 7.6406L3.4376 7.58748C3.0296 7.41868 2.56032 7.61229 2.39072 8.02029C2.22192 8.42829 2.41554 8.896 2.82354 9.0656L2.94854 9.11716C3.29974 9.26276 3.51146 9.63815 3.42666 10.0093C3.38586 10.1885 3.35001 10.3699 3.32041 10.5531C3.26041 10.9299 2.92 11.2 2.5376 11.2H2.4001C1.9585 11.2 1.6001 11.5584 1.6001 12C1.6001 12.4416 1.9585 12.8 2.4001 12.8H2.5376C2.92 12.8 3.26117 13.0693 3.32197 13.4468C3.35157 13.63 3.38586 13.8114 3.42666 13.9906C3.51146 14.3618 3.3013 14.7372 2.9501 14.8828L2.8251 14.9359C2.4171 15.1047 2.22269 15.5724 2.39229 15.9812C2.56109 16.3892 3.0288 16.5836 3.4376 16.414L3.56572 16.3609C3.91852 16.2145 4.3352 16.3322 4.5376 16.6562C4.6352 16.813 4.73665 16.9668 4.84385 17.1172C5.06545 17.4276 5.01501 17.8569 4.74541 18.1265L4.64697 18.2234C4.33417 18.5362 4.33417 19.0427 4.64697 19.3547C4.95977 19.6667 5.46622 19.6675 5.77822 19.3547L5.87666 19.2578C6.14626 18.9882 6.57407 18.9362 6.88447 19.1578C7.03487 19.265 7.18861 19.368 7.34541 19.4656C7.66941 19.6672 7.78869 20.0847 7.64229 20.4375L7.58916 20.564C7.42036 20.972 7.61397 21.4413 8.02197 21.6109C8.42997 21.7797 8.89769 21.5861 9.06729 21.1781L9.11885 21.0531C9.26445 20.7019 9.63984 20.4902 10.011 20.575C10.1902 20.6158 10.3716 20.6516 10.5548 20.6812C10.93 20.7396 11.2001 21.0801 11.2001 21.4625V21.6C11.2001 22.0416 11.5585 22.4 12.0001 22.4C12.4417 22.4 12.8001 22.0416 12.8001 21.6V21.4625C12.8001 21.0801 13.0694 20.7389 13.447 20.6781C13.6302 20.6485 13.8115 20.6142 13.9907 20.5734C14.3619 20.4886 14.7373 20.6988 14.8829 21.05L14.936 21.175C15.1048 21.583 15.5725 21.7774 15.9813 21.6078C16.3893 21.439 16.5838 20.9713 16.4142 20.5625L16.361 20.4343C16.2146 20.0815 16.3323 19.6649 16.6563 19.4625C16.8131 19.3649 16.9669 19.2634 17.1173 19.1562C17.4277 18.9346 17.8571 18.9851 18.1267 19.2547L18.2235 19.3531C18.5363 19.6659 19.0428 19.6659 19.3548 19.3531C19.6668 19.0403 19.6676 18.5338 19.3548 18.2218L19.2579 18.1234C18.9883 17.8538 18.9363 17.426 19.1579 17.1156C19.2651 16.9652 19.3681 16.8115 19.4657 16.6547C19.6673 16.3307 20.0848 16.2114 20.4376 16.3578L20.5642 16.4109C20.9722 16.5797 21.4414 16.3861 21.611 15.9781C21.7798 15.5701 21.5862 15.1024 21.1782 14.9328L21.0532 14.8812C20.702 14.7356 20.4903 14.3602 20.5751 13.989C20.6159 13.8098 20.6517 13.6285 20.6813 13.4453C20.7397 13.0701 21.0802 12.8 21.4626 12.8H21.6001C22.0417 12.8 22.4001 12.4416 22.4001 12C22.4001 11.5584 22.0417 11.2 21.6001 11.2H21.4626C21.0802 11.2 20.739 10.9307 20.6782 10.5531C20.6486 10.3699 20.6143 10.1885 20.5735 10.0093C20.4887 9.63815 20.6989 9.26276 21.0501 9.11716L21.1751 9.06404C21.5831 8.89524 21.7775 8.42753 21.6079 8.01873C21.4391 7.61073 20.9714 7.41631 20.5626 7.58591L20.4345 7.63904C20.0817 7.78544 19.665 7.66773 19.4626 7.34373C19.365 7.18693 19.2635 7.03319 19.1563 6.88279C18.9347 6.57239 18.9852 6.14301 19.2548 5.87341L19.3532 5.77654C19.666 5.46374 19.666 4.95729 19.3532 4.64529C19.0404 4.33249 18.534 4.33249 18.222 4.64529L18.1251 4.74373C17.8555 5.01333 17.4261 5.06533 17.1157 4.84373C16.9653 4.73653 16.8116 4.63351 16.6548 4.53591C16.3308 4.33431 16.2131 3.91684 16.3595 3.56404L16.4126 3.43748C16.5814 3.02948 16.3878 2.5602 15.9798 2.3906C15.5718 2.2218 15.1041 2.41541 14.9345 2.82341L14.8813 2.94841C14.7357 3.29961 14.3604 3.51134 13.9892 3.42654C13.81 3.38574 13.6286 3.34989 13.4454 3.32029C13.0694 3.26029 12.8001 2.91988 12.8001 2.53748V2.39998C12.8001 1.95838 12.4417 1.59998 12.0001 1.59998ZM12.0001 5.59998C15.263 5.59998 17.951 8.04388 18.3454 11.2H13.3829C13.2427 10.9572 13.0412 10.7554 12.7985 10.615C12.5558 10.4746 12.2805 10.4005 12.0001 10.4C11.9996 10.4 11.9991 10.4 11.9985 10.4L9.51729 6.09998C10.2809 5.77816 11.1195 5.59998 12.0001 5.59998ZM8.13604 6.90623L10.6157 11.2C10.4749 11.4431 10.4005 11.719 10.4001 12C10.401 12.2799 10.4754 12.5547 10.6157 12.7969L8.13447 17.0922C6.59724 15.9232 5.6001 14.08 5.6001 12C5.6001 9.91913 6.59781 8.07514 8.13604 6.90623ZM13.3845 12.8H18.3454C17.951 15.9561 15.263 18.4 12.0001 18.4C11.1195 18.4 10.2809 18.2218 9.51729 17.9L11.9985 13.6C11.9991 13.6 11.9996 13.6 12.0001 13.6C12.2807 13.5998 12.5564 13.5257 12.7994 13.3853C13.0424 13.2449 13.2442 13.043 13.3845 12.8Z" fill="black"/>
</svg>
