<svg width="32" height="32" viewBox="0 0 32 32" fill="none" xmlns="http://www.w3.org/2000/svg">
<path d="M16.0026 28.0546C12.7226 28.0546 12.336 28.0373 11.056 27.9813C10.0578 27.9484 9.07254 27.7455 8.14262 27.3813C6.53371 26.7551 5.26148 25.4824 4.63596 23.8733C4.2857 22.94 4.09678 21.9539 4.07729 20.9573C4.00262 19.6799 4.00262 19.2613 4.00262 16.0066C4.00262 12.7173 4.01996 12.3333 4.07729 11.0599C4.09721 10.0646 4.28612 9.07994 4.63596 8.14793C5.2608 6.53663 6.53509 5.26282 8.14662 4.63859C9.07815 4.28686 10.0631 4.09745 11.0586 4.07859C12.332 4.00659 12.7506 4.00659 16.0026 4.00659C19.3093 4.00659 19.6893 4.02393 20.9493 4.07859C21.9474 4.09761 22.9349 4.287 23.8693 4.63859C25.4804 5.26353 26.7544 6.53709 27.38 8.14793C27.7361 9.09352 27.926 10.0936 27.9413 11.1039C28.016 12.3813 28.016 12.7986 28.016 16.0519C28.016 19.3053 27.9973 19.7319 27.9413 20.9946C27.9214 21.9922 27.7321 22.9792 27.3813 23.9133C26.7542 25.5235 25.48 26.7967 23.8693 27.4226C22.9363 27.7722 21.9508 27.9611 20.9546 27.9813C19.6813 28.0546 19.264 28.0546 16.0026 28.0546ZM15.9573 6.11726C12.696 6.11726 12.3573 6.13326 11.084 6.19059C10.3239 6.20066 9.57126 6.34091 8.85862 6.60526C7.80629 7.00794 6.97359 7.83725 6.56662 8.88793C6.30024 9.60832 6.15997 10.3692 6.15196 11.1373C6.08129 12.4293 6.08129 12.7679 6.08129 16.0066C6.08129 19.2066 6.09329 19.5946 6.15196 20.8786C6.16389 21.6389 6.30409 22.3917 6.56662 23.1053C6.97419 24.1552 7.80675 24.9839 8.85862 25.3866C9.57078 25.6527 10.3238 25.793 11.084 25.8013C12.3746 25.8759 12.7146 25.8759 15.9573 25.8759C19.228 25.8759 19.5666 25.8599 20.8293 25.8013C21.5898 25.792 22.3431 25.6517 23.056 25.3866C24.1019 24.9804 24.9292 24.1536 25.336 23.1079C25.6018 22.3869 25.7421 21.6257 25.7506 20.8573H25.7653C25.8226 19.5826 25.8226 19.2426 25.8226 15.9853C25.8226 12.7279 25.808 12.3853 25.7506 11.1119C25.7387 10.3525 25.5985 9.60061 25.336 8.88793C24.9301 7.84069 24.1027 7.01232 23.056 6.60526C22.3432 6.33958 21.5899 6.19929 20.8293 6.19059C19.54 6.11726 19.2026 6.11726 15.9573 6.11726ZM16.0026 22.1653C13.5093 22.1669 11.2605 20.6662 10.3051 18.3632C9.3497 16.0602 9.87583 13.4084 11.6381 11.6445C13.4004 9.88071 16.0518 9.35229 18.3556 10.3057C20.6595 11.2591 22.1621 13.5066 22.1626 15.9999C22.159 19.4013 19.404 22.1586 16.0026 22.1653ZM16.0026 11.9973C13.7935 11.9973 12.0026 13.7881 12.0026 15.9973C12.0026 18.2064 13.7935 19.9973 16.0026 19.9973C18.2118 19.9973 20.0026 18.2064 20.0026 15.9973C19.9975 13.7902 18.2096 12.0024 16.0026 11.9973ZM22.4026 11.0466C21.6099 11.0436 20.9692 10.3994 20.9706 9.6066C20.9721 8.81383 21.6152 8.17194 22.408 8.17194C23.2007 8.17194 23.8438 8.81382 23.8453 9.60659C23.8456 9.98907 23.6937 10.356 23.423 10.6262C23.1523 10.8964 22.7851 11.0477 22.4026 11.0466Z" fill="#121212" fill-opacity="0.3"/>
</svg>
