<svg width="65" height="65" viewBox="0 0 65 65" fill="none" xmlns="http://www.w3.org/2000/svg">
<path d="M32 44.048C28.72 44.048 28.3333 44.0307 27.0533 43.9747C26.0552 43.9418 25.0699 43.7389 24.14 43.3747C22.5311 42.7485 21.2589 41.4758 20.6333 39.8667C20.2831 38.9334 20.0942 37.9473 20.0747 36.9507C20 35.6733 20 35.2547 20 32C20 28.7107 20.0173 28.3267 20.0747 27.0533C20.0946 26.058 20.2835 25.0733 20.6333 24.1413C21.2582 22.53 22.5325 21.2562 24.144 20.632C25.0755 20.2803 26.0605 20.0909 27.056 20.072C28.3293 20 28.748 20 32 20C35.3067 20 35.6867 20.0173 36.9467 20.072C37.9448 20.091 38.9323 20.2804 39.8667 20.632C41.4777 21.2569 42.7518 22.5305 43.3773 24.1413C43.7335 25.0869 43.9234 26.087 43.9387 27.0973C44.0133 28.3747 44.0133 28.792 44.0133 32.0453C44.0133 35.2987 43.9947 35.7253 43.9387 36.988C43.9188 37.9856 43.7295 38.9726 43.3787 39.9067C42.7515 41.5169 41.4774 42.7901 39.8667 43.416C38.9337 43.7656 37.9481 43.9545 36.952 43.9747C35.6787 44.048 35.2613 44.048 32 44.048ZM31.9547 22.1107C28.6933 22.1107 28.3547 22.1267 27.0813 22.184C26.3213 22.1941 25.5686 22.3343 24.856 22.5987C23.8037 23.0013 22.971 23.8307 22.564 24.8813C22.2976 25.6017 22.1573 26.3626 22.1493 27.1307C22.0787 28.4227 22.0787 28.7613 22.0787 32C22.0787 35.2 22.0907 35.588 22.1493 36.872C22.1613 37.6323 22.3015 38.3851 22.564 39.0987C22.9716 40.1487 23.8041 40.9773 24.856 41.38C25.5682 41.6461 26.3211 41.7864 27.0813 41.7947C28.372 41.8693 28.712 41.8693 31.9547 41.8693C35.2253 41.8693 35.564 41.8533 36.8267 41.7947C37.5872 41.7854 38.3405 41.6451 39.0533 41.38C40.0993 40.9739 40.9266 40.1471 41.3333 39.1013C41.5992 38.3803 41.7395 37.6191 41.748 36.8507H41.7627C41.82 35.576 41.82 35.236 41.82 31.9787C41.82 28.7213 41.8053 28.3787 41.748 27.1053C41.736 26.3459 41.5958 25.594 41.3333 24.8813C40.9275 23.8341 40.1001 23.0057 39.0533 22.5987C38.3406 22.333 37.5873 22.1927 36.8267 22.184C35.5373 22.1107 35.2 22.1107 31.9547 22.1107ZM32 38.1587C29.5067 38.1603 27.2579 36.6596 26.3025 34.3566C25.3471 32.0536 25.8732 29.4018 27.6355 27.6379C29.3978 25.8741 32.0491 25.3457 34.353 26.2991C36.6569 27.2525 38.1595 29.5 38.16 31.9933C38.1563 35.3948 35.4014 38.1521 32 38.1587ZM32 27.9907C29.7909 27.9907 28 29.7815 28 31.9907C28 34.1998 29.7909 35.9907 32 35.9907C34.2091 35.9907 36 34.1998 36 31.9907C35.9949 29.7837 34.207 27.9958 32 27.9907ZM38.4 27.04C37.6072 27.0371 36.9665 26.3928 36.968 25.6C36.9695 24.8072 37.6126 24.1653 38.4053 24.1653C39.1981 24.1653 39.8412 24.8072 39.8427 25.6C39.843 25.9825 39.6911 26.3494 39.4204 26.6196C39.1496 26.8898 38.7825 27.0411 38.4 27.04Z" fill="#D9DBE9"/>
</svg>
