<svg width="40" height="41" viewBox="0 0 40 41" fill="none" xmlns="http://www.w3.org/2000/svg">
<path fill-rule="evenodd" clip-rule="evenodd" d="M27.8803 15.7004C27.8862 15.7222 27.8892 15.7447 27.8893 15.7673V19.2784C27.8893 19.3234 27.8774 19.3677 27.8548 19.4067C27.8322 19.4457 27.7997 19.478 27.7606 19.5004L24.8138 21.1971V24.56C24.8138 24.6515 24.7651 24.736 24.6858 24.782L18.5344 28.3232C18.5203 28.3312 18.505 28.3363 18.4896 28.3417C18.4838 28.3436 18.4784 28.3472 18.4723 28.3488C18.4293 28.3601 18.3841 28.3601 18.3411 28.3488C18.3341 28.3468 18.3277 28.343 18.321 28.3404C18.3069 28.3353 18.2922 28.3308 18.2787 28.3232L12.1286 24.782C12.0896 24.7596 12.0571 24.7272 12.0345 24.6883C12.0119 24.6493 12 24.605 12 24.56V14.0268C12 14.0038 12.0032 13.9814 12.009 13.9596C12.0109 13.9523 12.0154 13.9456 12.0179 13.9382C12.0227 13.9248 12.0272 13.911 12.0342 13.8985C12.039 13.8902 12.0461 13.8835 12.0518 13.8758C12.0592 13.8656 12.0659 13.855 12.0746 13.846C12.0819 13.8387 12.0915 13.8332 12.0998 13.8268C12.1091 13.8192 12.1174 13.8108 12.128 13.8048H12.1283L15.2035 12.0342C15.2425 12.0118 15.2866 12 15.3315 12C15.3764 12 15.4206 12.0118 15.4595 12.0342L18.5347 13.8048H18.5354C18.5456 13.8112 18.5542 13.8192 18.5635 13.8265C18.5718 13.8329 18.5811 13.8387 18.5885 13.8457C18.5974 13.855 18.6038 13.8656 18.6115 13.8758C18.617 13.8835 18.6243 13.8902 18.6288 13.8985C18.6362 13.9113 18.6403 13.9248 18.6454 13.9382C18.648 13.9456 18.6525 13.9523 18.6544 13.96C18.6603 13.9818 18.6633 14.0043 18.6634 14.0268V20.6057L21.2259 19.1302V15.767C21.2259 15.7446 21.2291 15.7219 21.2349 15.7004C21.2371 15.6928 21.2413 15.686 21.2438 15.6787C21.249 15.6652 21.2534 15.6515 21.2605 15.639C21.2653 15.6307 21.2723 15.624 21.2778 15.6163C21.2854 15.606 21.2918 15.5955 21.3008 15.5865C21.3082 15.5792 21.3174 15.5737 21.3258 15.5673C21.3354 15.5596 21.3437 15.5513 21.3539 15.5452H21.3542L24.4298 13.7747C24.4687 13.7522 24.5128 13.7404 24.5578 13.7404C24.6027 13.7404 24.6468 13.7522 24.6858 13.7747L27.761 15.5452C27.7718 15.5516 27.7802 15.5596 27.7898 15.567C27.7978 15.5734 27.807 15.5792 27.8144 15.5862C27.8234 15.5955 27.8298 15.606 27.8374 15.6163C27.8432 15.624 27.8502 15.6307 27.8547 15.639C27.8621 15.6515 27.8662 15.6652 27.8714 15.6787C27.8742 15.686 27.8784 15.6928 27.8803 15.7004ZM27.3766 19.1302V16.2105L26.3005 16.83L24.8138 17.686V20.6057L27.377 19.1302H27.3766ZM24.3014 24.4118V21.4902L22.839 22.3254L18.663 24.7088V27.6579L24.3014 24.4118ZM12.5126 14.47V24.4118L18.1504 27.6576V24.7091L15.2051 23.0422L15.2042 23.0416L15.2029 23.0409C15.193 23.0352 15.1846 23.0268 15.1754 23.0198C15.1674 23.0134 15.1581 23.0083 15.151 23.0012L15.1504 23.0003C15.1421 22.9923 15.1363 22.9824 15.1293 22.9734C15.1229 22.9648 15.1152 22.9574 15.1101 22.9484L15.1098 22.9475C15.104 22.9379 15.1005 22.9264 15.0963 22.9155C15.0922 22.9059 15.0867 22.8969 15.0842 22.8867V22.8864C15.081 22.8742 15.0803 22.8614 15.079 22.8489C15.0778 22.8393 15.0752 22.8297 15.0752 22.8201V22.8195V15.9456L13.5888 15.0892L12.5126 14.4704V14.47ZM15.3318 12.552L12.7696 14.0268L15.3312 15.5017L17.8931 14.0265L15.3312 12.552H15.3318ZM16.6643 21.7564L18.1507 20.9008V14.47L17.0746 15.0896L15.5878 15.9456V22.3763L16.6643 21.7564ZM24.5578 14.2924L21.9958 15.7673L24.5578 17.2422L27.1194 15.767L24.5578 14.2924ZM24.3014 17.686L22.8147 16.83L21.7386 16.2105V19.1302L23.225 19.9859L24.3014 20.6057V17.686ZM18.4064 24.2656L22.1642 22.1203L24.0426 21.0483L21.4826 19.5744L18.535 21.2713L15.8486 22.8179L18.4064 24.2656Z" fill="#FF2D20"/>
<rect x="0.5" y="0.5" width="38.8893" height="39.3573" rx="7.5" stroke="#DEDEDE"/>
</svg>
