<svg width="32" height="32" viewBox="0 0 32 32" fill="none" xmlns="http://www.w3.org/2000/svg">
<path d="M17.3333 28H12V12H17.3333V14.6667C18.4702 13.2203 20.1942 12.3581 22.0333 12.316C25.3408 12.3344 28.0096 15.0258 28 18.3333V28H22.6667V19C22.4534 17.5102 21.1757 16.4048 19.6707 16.408C19.0124 16.4288 18.391 16.717 17.9499 17.2062C17.5088 17.6953 17.2862 18.3431 17.3333 19V28ZM9.33333 28H4V12H9.33333V28ZM6.66667 9.33333C5.19391 9.33333 4 8.13943 4 6.66667C4 5.19391 5.19391 4 6.66667 4C8.13943 4 9.33333 5.19391 9.33333 6.66667C9.33333 7.37391 9.05238 8.05219 8.55229 8.55229C8.05219 9.05238 7.37391 9.33333 6.66667 9.33333Z" fill="#121212" fill-opacity="0.3"/>
</svg>
