<svg width="319" height="40" viewBox="0 0 319 40" fill="none" xmlns="http://www.w3.org/2000/svg">
<path d="M158.82 34.1915H148.105V5.89886H158.82V34.1915ZM149.152 33.158H157.774V6.93234H149.152V33.158ZM173.729 34.1915H163.229V5.89886H185.165C188.308 5.64752 191.437 6.51889 193.984 8.35441C195.08 9.34513 195.93 10.5727 196.467 11.9412C197.004 13.3098 197.213 14.7823 197.079 16.244C197.236 18.7698 196.422 21.2609 194.8 23.22C192.881 25.3945 189.688 26.5148 185.31 26.554C184.207 26.583 175.943 26.554 173.735 26.554L173.729 34.1915ZM164.269 33.158H172.682V25.5102H173.207C173.314 25.5102 184.044 25.5433 185.285 25.5102C189.363 25.4751 192.295 24.4767 194.009 22.5276C195.453 20.7551 196.17 18.5118 196.018 16.2419C196.147 14.9323 195.968 13.6109 195.497 12.3803C195.025 11.1498 194.272 10.0431 193.298 9.14606C190.936 7.47202 188.047 6.68623 185.151 6.93027H164.276L164.269 33.158ZM182.943 20.1981H172.611V12.4966H183.012C183.749 12.396 184.5 12.481 185.195 12.7437C185.89 13.0064 186.507 13.4383 186.988 13.9993C187.424 14.7164 187.63 15.5474 187.578 16.3825C187.617 17.1578 187.448 17.9296 187.086 18.619C186.59 19.2099 185.948 19.6647 185.223 19.9398C184.497 20.215 183.712 20.301 182.943 20.1898V20.1981ZM173.657 19.1646H182.943C184.659 19.1646 185.722 18.8112 186.193 18.0836C186.452 17.5548 186.569 16.969 186.534 16.3825C186.58 15.7667 186.445 15.1509 186.145 14.609L186.132 14.5904C185.634 13.867 184.644 13.5301 183.012 13.5301H173.657V19.1646ZM216.175 34.609C206.779 34.609 201.17 32.3043 199.034 27.5648C198.684 26.6493 198.447 25.6958 198.326 24.7248L198.234 24.1295H209.414L209.487 24.5635C209.573 25.0042 209.763 25.4191 210.039 25.7748C210.481 26.3019 211.954 27.1865 216.843 27.1865C222.719 27.1865 222.719 26.1675 222.719 25.6198C222.719 24.6958 222.039 24.3796 217.247 23.8752L216.336 23.7905C214.532 23.6231 212.251 23.4102 211.209 23.3213C202.42 22.5358 198.496 19.8385 198.496 14.578C198.496 9.05305 205.174 5.4834 215.51 5.4834C223.941 5.4834 229.374 7.67851 231.653 12.0129C232.193 13.0212 232.557 14.113 232.726 15.2415L232.8 15.8224H221.608L221.562 15.3552C221.518 14.9901 221.361 14.6477 221.11 14.3755C220.691 13.8215 219.369 12.9059 215.263 12.9059C210.221 12.9059 209.527 13.5425 209.527 14.2287C209.527 15.1444 211.119 15.4689 216.223 16.0084C218.352 16.1799 221.773 16.5272 222.945 16.6677C230.314 17.4573 233.601 20.0886 233.601 25.2022C233.603 29.4912 230.579 34.609 216.175 34.609ZM199.456 25.163C199.561 25.8446 199.742 26.5127 199.994 27.1555C201.94 31.4734 207.235 33.5755 216.175 33.5755C223.65 33.5755 232.563 32.1286 232.563 25.2022C232.563 20.6694 229.654 18.4247 222.834 17.695C221.662 17.5545 218.262 17.2093 216.137 17.0357C210.696 16.4528 208.484 16.1427 208.484 14.2287C208.484 12.2486 210.868 11.8724 215.267 11.8724C218.743 11.8724 220.988 12.4925 221.941 13.743C222.2 14.0511 222.397 14.4064 222.518 14.7889H231.588C231.406 13.9895 231.117 13.2173 230.73 12.4925C228.637 8.52597 223.525 6.51688 215.514 6.51688C205.814 6.51688 199.546 9.6814 199.546 14.578C199.546 19.2494 203.064 21.5561 211.305 22.2919C212.352 22.3808 214.631 22.5937 216.439 22.7632L217.355 22.848C221.807 23.311 223.77 23.6003 223.77 25.6198C223.77 27.7942 221.231 28.22 216.847 28.22C212.791 28.22 210.23 27.6185 209.24 26.4341C208.935 26.0565 208.705 25.6251 208.562 25.163H199.456ZM253.482 34.5738C242.558 34.5738 236.531 30.2105 236.531 22.2857V5.89886H247.103V22.2857C247.103 25.0038 249.566 26.5623 253.859 26.5623C257.96 26.5623 260.507 24.9356 260.507 22.3209V5.89886H270.971V23.1539C270.981 30.411 264.601 34.5738 253.476 34.5738H253.482ZM237.577 6.93234V22.2857C237.577 32.079 247.534 33.5404 253.482 33.5404C259.63 33.5404 269.941 32.1906 269.941 23.1539V6.93234H261.57V22.3209C261.57 25.5247 258.548 27.5958 253.875 27.5958C248.991 27.5958 246.074 25.6115 246.074 22.2857V6.93234H237.577ZM315.311 34.1915H305.333V21.4176L299.674 34.1915H290.971L285.371 21.4424V34.1915H275.357V5.89886H288.529L295.372 21.4982L302.546 5.89886H315.324L315.311 34.1915ZM306.38 33.158H314.265V6.93234H303.211L295.338 24.0447L287.834 6.93234H276.395V33.158H284.316V16.4693L291.641 33.1642H298.965L306.367 16.4941L306.38 33.158ZM13.0854 6.4156H3.55518V33.6747H29.8899V26.4176H13.0854V6.4156ZM49.1262 5.79551C36.9612 5.79551 30.5638 11.49 30.5638 19.8509C30.5638 29.2969 37.2793 34.0881 49.1262 34.0881C62.168 34.0881 67.653 28.5321 67.653 19.8509C67.653 11.0353 61.4648 5.79138 49.1262 5.79138V5.79551ZM49.0906 12.879C49.9187 12.8752 50.7463 12.9228 51.5684 13.0216L40.9143 23.5445C40.4102 22.4182 40.1643 21.1956 40.1944 19.9645C40.1944 15.688 42.3751 12.8749 49.0906 12.8749V12.879ZM49.1262 27.1162C48.3282 27.1198 47.5309 27.0755 46.7384 26.984L57.4112 16.4424C57.8965 17.5501 58.1288 18.7499 58.0914 19.9563C58.0914 24.1171 56.0823 27.1121 49.1262 27.1121V27.1162ZM86.5356 23.3957H96.3441C96.1997 24.0681 95.8988 24.6979 95.4652 25.2353C93.4317 26.8715 90.8365 27.6677 88.2223 27.4573C86.9064 27.5964 85.5758 27.4544 84.3204 27.041C83.065 26.6278 81.914 25.9527 80.9459 25.0617C79.9542 23.6249 79.4831 21.8994 79.6087 20.165C79.4481 18.3476 79.9604 16.5345 81.0505 15.0617C82.4213 13.5322 84.7421 12.8728 88.1532 12.8728C90.3236 12.6953 92.4912 13.2458 94.3058 14.4354C94.8777 14.8841 95.3053 15.4873 95.5363 16.1717H104.633C104.567 15.0441 104.293 13.938 103.823 12.9079C101.645 8.53217 96.5806 5.9278 87.9691 5.9278C80.4792 5.9278 75.4525 8.18492 72.6755 11.5892C70.8414 14.0476 69.8999 17.0448 70.0031 20.0968C69.8844 23.2179 70.8017 26.2917 72.6148 28.8504C75.3584 32.3643 80.2448 34.0922 86.117 34.0922C90.021 34.3612 93.8984 33.2812 97.0849 31.0373L97.3319 33.6747H104.889V17.5276H86.5356V23.3957ZM126.337 5.78931C114.174 5.78931 107.775 11.4838 107.775 19.8447C107.775 29.2907 114.488 34.0819 126.337 34.0819C139.381 34.0819 144.866 28.5259 144.866 19.8447C144.866 11.0353 138.678 5.79138 126.337 5.79138V5.78931ZM126.303 12.8728C127.11 12.8704 127.915 12.916 128.716 13.0092L118.104 23.497C117.616 22.3831 117.378 21.1781 117.407 19.9645C117.399 15.688 119.588 12.8749 126.303 12.8749V12.8728ZM126.337 27.11C125.518 27.1136 124.699 27.0664 123.886 26.9695L134.595 16.3908C135.098 17.5132 135.34 18.7333 135.3 19.9604C135.304 24.1171 133.304 27.1121 126.337 27.1121V27.11Z" fill="#394149"/>
</svg>
