<svg width="221" height="57" viewBox="0 0 221 57" fill="none" xmlns="http://www.w3.org/2000/svg">
<path d="M65.6969 17.7229H71.0425V39.0709H65.6969V17.7229ZM73.1629 31.0104C73.1629 25.7306 76.4415 22.5803 81.502 22.5803C86.5625 22.5803 89.8411 25.7306 89.8411 31.0104C89.8411 36.2902 86.6338 39.4581 81.502 39.4581C76.3703 39.4581 73.1629 36.3782 73.1629 31.0104ZM84.4777 31.0104C84.4777 28.1065 83.3195 26.3994 81.502 26.3994C79.6845 26.3994 78.5441 28.1593 78.5441 31.0104C78.5441 33.8615 79.6667 35.5862 81.502 35.5862C83.3373 35.5862 84.4777 33.9671 84.4777 31.028V31.0104ZM91.8546 40.1092H96.9864C97.2307 40.6451 97.6435 41.0888 98.1637 41.3743C98.6838 41.6596 99.2834 41.7715 99.873 41.6932C101.904 41.6932 102.973 40.602 102.973 39.0181V36.0614H102.867C102.441 36.9676 101.749 37.7268 100.882 38.2414C100.015 38.7559 99.012 39.0019 98.002 38.9477C94.0998 38.9477 91.5161 36.0086 91.5161 30.9576C91.5161 25.9066 93.975 22.7211 98.0733 22.7211C99.115 22.6808 100.144 22.9559 101.023 23.5094C101.902 24.063 102.589 24.8687 102.991 25.8186V22.8795H108.337V38.8949C108.337 42.7491 104.898 45.1426 99.8195 45.1426C95.0976 45.1426 92.1575 43.0483 91.8546 40.1268V40.1092ZM102.991 30.9928C102.991 28.4233 101.797 26.8041 99.9086 26.8041C98.0199 26.8041 96.8617 28.4057 96.8617 30.9928C96.8617 33.5799 98.002 35.0406 99.9086 35.0406C101.815 35.0406 102.991 33.6151 102.991 31.0104V30.9928ZM110.35 30.9928C110.35 25.713 113.629 22.5627 118.689 22.5627C123.75 22.5627 127.046 25.713 127.046 30.9928C127.046 36.2726 123.839 39.4405 118.689 39.4405C113.54 39.4405 110.35 36.3782 110.35 31.0104V30.9928ZM121.665 30.9928C121.665 28.0889 120.507 26.3818 118.689 26.3818C116.872 26.3818 115.821 28.1593 115.821 31.028C115.821 33.8967 116.943 35.6038 118.761 35.6038C120.578 35.6038 121.665 33.9671 121.665 31.028V30.9928ZM129.078 19.0428C129.064 18.5097 129.21 17.9846 129.499 17.5339C129.787 17.0832 130.205 16.7272 130.698 16.5112C131.192 16.2951 131.739 16.2287 132.271 16.3203C132.803 16.4119 133.296 16.6575 133.686 17.0258C134.077 17.3941 134.347 17.8686 134.464 18.3892C134.582 18.9098 134.539 19.4529 134.343 19.9499C134.148 20.4467 133.807 20.8751 133.364 21.1804C132.922 21.4858 132.397 21.6546 131.857 21.6651C131.5 21.6894 131.141 21.6403 130.803 21.521C130.465 21.4017 130.156 21.2148 129.895 20.9717C129.634 20.7288 129.427 20.4351 129.286 20.1092C129.145 19.7834 129.074 19.4323 129.078 19.078V19.0428ZM129.078 22.9147H134.423V39.0709H129.078V22.9147ZM153.828 30.9928C153.828 36.2726 151.458 39.2821 147.395 39.2821C146.354 39.3481 145.316 39.0966 144.424 38.5616C143.532 38.0264 142.827 37.2335 142.406 36.2902H142.299V44.2451H136.954V22.8795H142.299V25.7658H142.406C142.808 24.8068 143.499 23.9934 144.385 23.436C145.271 22.8786 146.31 22.6044 147.36 22.6507C151.458 22.7211 153.899 25.7482 153.899 31.028L153.828 30.9928ZM148.482 30.9928C148.482 28.4233 147.288 26.7865 145.417 26.7865C143.546 26.7865 142.353 28.4409 142.335 30.9928C142.317 33.5447 143.546 35.1814 145.417 35.1814C147.288 35.1814 148.482 33.5799 148.482 31.028V30.9928ZM163.004 22.5451C167.441 22.5451 170.132 24.6218 170.257 27.9481H165.392C165.392 26.8041 164.43 26.0826 162.951 26.0826C161.472 26.0826 160.813 26.6457 160.813 27.4729C160.813 28.3001 161.401 28.5641 162.595 28.8105L166.016 29.4968C169.276 30.1832 170.666 31.4856 170.666 33.9319C170.666 37.2757 167.584 39.4229 163.04 39.4229C158.496 39.4229 155.521 37.2757 155.289 33.9847H160.438C160.599 35.1814 161.561 35.8854 163.129 35.8854C164.697 35.8854 165.41 35.375 165.41 34.5303C165.41 33.6855 164.911 33.5095 163.628 33.2455L160.545 32.5943C157.356 31.9431 155.681 30.2712 155.681 27.8073C155.717 24.6394 158.585 22.5803 163.004 22.5803V22.5451ZM188.503 39.0357H183.353V36.0262H183.246C182.963 37.0366 182.339 37.9209 181.477 38.5325C180.614 39.1439 179.567 39.4457 178.507 39.3877C177.694 39.4332 176.882 39.3062 176.124 39.0149C175.365 38.7236 174.679 38.2752 174.112 37.6995C173.544 37.124 173.108 36.4347 172.834 35.6784C172.559 34.9222 172.452 34.1165 172.519 33.3159V22.8795H177.865V32.1015C177.865 34.0199 178.863 35.0406 180.52 35.0406C180.908 35.0413 181.293 34.9602 181.648 34.8023C182.001 34.6445 182.318 34.4136 182.575 34.1253C182.829 33.8368 183.022 33.4977 183.134 33.1306C183.246 32.7633 183.28 32.3764 183.228 31.9959V22.8795H188.574L188.503 39.0357ZM191.086 22.8795H196.254V25.9946H196.361C196.644 24.9976 197.255 24.1215 198.096 23.5037C198.937 22.886 199.964 22.5611 201.011 22.5803C202.079 22.496 203.137 22.8112 203.98 23.4634C204.821 24.1157 205.384 25.0569 205.555 26.1002H205.662C205.985 25.0458 206.655 24.1278 207.565 23.4905C208.474 22.8533 209.573 22.533 210.687 22.5803C211.414 22.5562 212.137 22.6834 212.811 22.9538C213.486 23.2239 214.094 23.6313 214.598 24.1491C215.102 24.6671 215.491 25.2839 215.739 25.9595C215.984 26.6352 216.086 27.3548 216.033 28.0713V39.0709H210.687V29.4792C210.687 27.7193 209.885 26.9097 208.388 26.9097C208.055 26.9069 207.724 26.9749 207.419 27.109C207.114 27.2431 206.842 27.4402 206.621 27.6871C206.4 27.934 206.234 28.2248 206.136 28.54C206.038 28.8553 206.011 29.1876 206.054 29.5144V39.0709H200.976V29.4088C200.976 27.7897 200.174 26.9097 198.713 26.9097C198.376 26.9099 198.041 26.9807 197.735 27.1174C197.426 27.2543 197.15 27.4541 196.927 27.7035C196.703 27.9528 196.535 28.2464 196.434 28.5648C196.334 28.883 196.302 29.2186 196.343 29.5496V39.0709H190.997L191.086 22.8795Z" fill="#394149"/>
<path d="M50.747 18.6908C49.8402 16.6429 48.6401 14.7344 47.1832 13.0239C45.0299 10.4197 42.3425 8.2956 39.298 6.79122C36.2535 5.28687 32.9209 4.43638 29.5197 4.29574C26.1184 4.15511 22.7256 4.72751 19.5644 5.9753C16.4033 7.22308 13.5456 9.11794 11.1793 11.5352C8.81304 13.9524 6.99189 16.8372 5.83572 19.9997C4.67956 23.1621 4.21459 26.5306 4.47142 29.8833C4.72828 33.2362 5.70109 36.4972 7.32586 39.4517C8.95063 42.4065 11.1905 44.9878 13.8981 47.0258C15.6354 48.3596 17.5551 49.4439 19.6 50.2465C22.467 51.407 25.5356 52.0046 28.6341 52.0064C35.0299 51.9925 41.1591 49.4744 45.6785 45.0041C50.1976 40.5339 52.738 34.4764 52.7427 28.1593C52.7473 24.9008 52.0679 21.6767 50.747 18.6908ZM28.6162 9.13438C31.3988 9.1341 34.1477 9.73477 36.6703 10.8943C36.0552 11.1568 35.4083 11.3402 34.7459 11.4399C32.5659 11.7516 30.5465 12.7512 28.989 14.2895C27.4315 15.8279 26.4194 17.8225 26.1038 19.9756C25.9654 21.1831 25.4093 22.3064 24.5296 23.1561C23.6498 24.0058 22.5004 24.5296 21.275 24.6394C19.0951 24.9511 17.0756 25.9507 15.5181 27.4891C13.9606 29.0275 12.9485 31.022 12.633 33.1751C12.5261 34.3233 12.0302 35.4023 11.2253 36.2374C9.83661 33.3393 9.21278 30.1411 9.41185 26.9409C9.61092 23.7406 10.6264 20.6421 12.3639 17.9335C14.1013 15.2252 16.5042 12.9948 19.349 11.4502C22.1937 9.90555 25.3879 9.09681 28.6341 9.09918L28.6162 9.13438ZM13.8803 40.4788C14.0941 40.2852 14.3079 40.1092 14.5217 39.898C16.107 38.3801 17.1245 36.3762 17.4084 34.2135C17.5234 32.9977 18.073 31.8622 18.9586 31.0104C19.8108 30.1343 20.9578 29.5959 22.1837 29.4968C24.3637 29.1852 26.383 28.1855 27.9406 26.6472C29.4981 25.1088 30.5102 23.1143 30.8258 20.9612C30.9029 19.6896 31.4553 18.4916 32.376 17.5997C33.2493 16.7406 34.4071 16.2218 35.6368 16.1389C37.6394 15.8668 39.5072 14.9874 40.9824 13.6222C42.6621 14.9986 44.0851 16.6544 45.1876 18.5148C45.1198 18.6051 45.0422 18.6878 44.9559 18.7612C44.1054 19.6451 42.9599 20.1952 41.7307 20.31C39.5485 20.6162 37.5261 21.6141 35.9675 23.1533C34.4091 24.6927 33.3988 26.6903 33.0887 28.8457C32.9631 30.0572 32.4173 31.1887 31.5438 32.0482C30.6702 32.9079 29.5227 33.4428 28.2955 33.5623C26.1092 33.8715 24.0823 34.8692 22.5157 36.4069C20.9493 37.9447 19.9266 39.9405 19.6 42.098C19.5042 42.958 19.205 43.784 18.7269 44.5091C16.8987 43.4369 15.2614 42.0754 13.8803 40.4788ZM28.6162 47.2722C26.8082 47.2741 25.0087 47.0253 23.2707 46.533C23.8653 45.4383 24.2518 44.2453 24.4111 43.0131C24.536 41.8042 25.0793 40.6749 25.9492 39.8157C26.8191 38.9565 27.9625 38.4199 29.1864 38.2965C31.3696 37.9883 33.3931 36.9903 34.9542 35.4516C36.5151 33.913 37.5298 31.9164 37.8463 29.7608C37.9712 28.5519 38.5145 27.4226 39.3844 26.5634C40.2543 25.7042 41.3977 25.1676 42.6217 25.0442C44.2646 24.8332 45.8305 24.229 47.1832 23.2843C47.9345 26.0965 48.0234 29.0412 47.4434 31.8926C46.8634 34.7441 45.6296 37.4266 43.8371 39.734C42.0445 42.0413 39.7408 43.9126 37.1022 45.2041C34.4638 46.4955 31.561 47.1729 28.6162 47.1842V47.2722Z" fill="#394149"/>
</svg>
