<svg width="205" height="61" viewBox="0 0 205 61" fill="none" xmlns="http://www.w3.org/2000/svg">
<path d="M36.1469 17.3696H39.2349V38.5976H48.4989V41.6476H36.1469V17.3696ZM58.118 17.3696C59.9502 17.3696 61.7413 17.9063 63.2647 18.9117C64.7882 19.9171 65.9757 21.3461 66.6768 23.0181C67.378 24.6901 67.5614 26.5299 67.204 28.3046C66.8465 30.0796 65.9643 31.71 64.6685 32.9896C63.373 34.2694 61.7223 35.1408 59.9252 35.4938C58.1283 35.8468 56.2656 35.6657 54.5728 34.9732C52.88 34.2805 51.4332 33.1078 50.4153 31.6031C49.3973 30.0984 48.854 28.3294 48.854 26.5196C48.854 25.3181 49.0936 24.1281 49.5591 23.0181C50.0246 21.9079 50.7071 20.8992 51.5674 20.0497C52.4276 19.1999 53.4488 18.5259 54.5728 18.0661C55.6967 17.6063 56.9015 17.3696 58.118 17.3696ZM58.118 32.6196C59.3394 32.6196 60.5336 32.2619 61.5492 31.5916C62.5649 30.9212 63.3565 29.9686 63.8238 28.854C64.2913 27.7393 64.4136 26.5129 64.1752 25.3295C63.937 24.1463 63.3487 23.0594 62.485 22.2063C61.6213 21.3532 60.5209 20.7722 59.3229 20.5369C58.1248 20.3014 56.8831 20.4222 55.7546 20.884C54.6261 21.3456 53.6614 22.1275 52.9828 23.1306C52.3042 24.1338 51.942 25.3132 51.942 26.5196C51.9502 28.1322 52.6043 29.6759 53.7617 30.8133C54.9191 31.9506 56.4853 32.5891 58.118 32.5891V32.6196ZM51.942 38.6281H64.294V41.6781H51.942V38.6281ZM91.4684 41.6781H88.3804V39.4974C86.3889 40.8742 84.0177 41.6141 81.5868 41.6171C79.514 41.6309 77.4709 41.1291 75.6461 40.1582C73.8211 39.187 72.2729 37.7781 71.1442 36.061C70.0154 34.3438 69.3422 32.3737 69.1869 30.332C69.0314 28.2905 69.3988 26.243 70.2549 24.3785C71.111 22.5139 72.4285 20.8921 74.0859 19.6626C75.7434 18.433 77.6874 17.6351 79.7389 17.3426C81.7906 17.05 83.8838 17.2722 85.8255 17.9885C87.7674 18.7048 89.4956 19.8921 90.8508 21.4414L88.5811 23.4391C87.5503 22.3009 86.2477 21.4356 84.7915 20.9221C83.3355 20.4085 81.7725 20.263 80.245 20.4989C78.7174 20.7349 77.2741 21.3447 76.0461 22.2727C74.8183 23.2008 73.8452 24.4174 73.2155 25.8122C72.5857 27.2068 72.3194 28.7349 72.4407 30.2573C72.5621 31.7797 73.0671 33.2478 73.9102 34.5279C74.7532 35.808 75.907 36.8594 77.2668 37.5863C78.6265 38.3131 80.1489 38.6922 81.6949 38.6891C82.9779 38.6917 84.2465 38.4206 85.4137 37.8942C86.5808 37.3677 87.6192 36.5985 88.4576 35.6391H80.12V32.5891H91.4993L91.4684 41.6781ZM102.832 17.4306C104.664 17.4306 106.456 17.9673 107.979 18.9727C109.502 19.9781 110.69 21.4071 111.391 23.0791C112.092 24.7511 112.276 26.5909 111.918 28.3656C111.561 30.1406 110.679 31.771 109.383 33.0506C108.087 34.3304 106.437 35.2018 104.639 35.5548C102.843 35.9078 100.98 35.7267 99.287 35.0342C97.5942 34.3415 96.1475 33.1688 95.1295 31.6641C94.1116 30.1594 93.5682 28.3904 93.5682 26.5806C93.56 25.3713 93.7947 24.1725 94.2585 23.0533C94.7224 21.9341 95.4062 20.9168 96.2705 20.0603C97.1349 19.2038 98.1626 18.525 99.2941 18.0631C100.426 17.6013 101.639 17.3655 102.863 17.3696L102.832 17.4306ZM102.832 32.6806C104.054 32.6806 105.248 32.3229 106.263 31.6526C107.279 30.9822 108.071 30.0296 108.538 28.915C109.006 27.8003 109.128 26.5739 108.889 25.3905C108.651 24.2073 108.063 23.1204 107.199 22.2673C106.336 21.4142 105.235 20.8332 104.037 20.5979C102.839 20.3624 101.597 20.4832 100.469 20.945C99.3403 21.4066 98.3756 22.1885 97.697 23.1916C97.0184 24.1948 96.6562 25.3742 96.6562 26.5806C96.6806 28.1878 97.3462 29.7206 98.5086 30.8458C99.6707 31.9708 101.236 32.5974 102.863 32.5891L102.832 32.6806ZM96.6562 38.6891H109.008V41.7391H96.6562V38.6891ZM115.385 17.3696H118.473V41.6171H115.385V17.3696ZM122.75 17.3696H125.838C125.997 17.353 126.157 17.353 126.316 17.3696C127.61 17.231 128.918 17.3631 130.156 17.757C131.394 18.151 132.535 18.7981 133.503 19.6562C134.471 20.5143 135.245 21.5643 135.775 22.7376C136.306 23.911 136.58 25.1814 136.58 26.4663C136.58 27.7511 136.306 29.0216 135.775 30.1949C135.245 31.3682 134.471 32.4182 133.503 33.2763C132.535 34.1344 131.394 34.7815 130.156 35.1755C128.918 35.5694 127.61 35.7015 126.316 35.5629H125.838V41.6629H122.75V17.3696ZM125.838 20.4196V32.4824H126.316C127.189 32.5971 128.076 32.5265 128.918 32.275C129.76 32.0237 130.538 31.5974 131.2 31.0249C131.862 30.4525 132.393 29.7468 132.756 28.9554C133.12 28.1639 133.308 27.3049 133.308 26.4358C133.308 25.5667 133.12 24.7076 132.756 23.9162C132.393 23.1247 131.862 22.4191 131.2 21.8466C130.538 21.2739 129.76 20.8479 128.918 20.5964C128.076 20.3451 127.189 20.2745 126.316 20.3891C126.148 20.4064 125.982 20.4422 125.822 20.4959L125.838 20.4196ZM148.087 19.1234L145.802 20.9076C145.408 20.5008 144.904 20.2135 144.35 20.0796C143.796 19.9457 143.215 19.9707 142.675 20.1517C142.135 20.3326 141.659 20.662 141.302 21.1012C140.945 21.5404 140.722 22.0711 140.66 22.6309V22.8749C140.66 24.2169 141.602 25.1166 143.439 25.2386C150.511 25.6656 153.753 28.9444 153.753 33.2754V33.5499C153.571 35.264 152.893 36.8902 151.802 38.2353C150.711 39.5803 149.251 40.5873 147.597 41.1368C145.943 41.6861 144.164 41.7547 142.472 41.3343C140.78 40.914 139.245 40.0223 138.051 38.7654L140.413 36.9659C140.963 37.548 141.634 38.0049 142.381 38.3051C143.128 38.6053 143.931 38.7416 144.736 38.7044C146.224 38.7819 147.683 38.2888 148.811 37.3282C149.939 36.3678 150.648 35.014 150.789 33.5499V33.3364C150.789 29.2646 146.744 28.5174 143.239 28.1819C139.996 27.8769 137.665 25.8791 137.665 22.9969V22.8749C137.779 21.3743 138.473 19.9743 139.602 18.9642C140.731 17.9539 142.21 17.4104 143.733 17.4459C144.54 17.4224 145.343 17.5662 146.09 17.8683C146.838 18.1704 147.513 18.6239 148.071 19.1996L148.087 19.1234ZM165.843 38.5214C169.687 38.5214 172.729 34.4191 172.729 29.3714V17.1714H175.817V29.3714C175.817 36.0814 171.37 41.4951 165.905 41.4951C160.439 41.4951 155.992 36.0814 155.992 29.3714V17.1714H159.08V29.3714C158.957 34.4954 161.998 38.5976 165.827 38.5976L165.843 38.5214ZM199.518 41.5714H196.43V26.4739L189.312 35.6239L182.194 26.4739V41.6171H179.106V17.3696L189.296 30.6219L199.487 17.3696L199.518 41.5714Z" fill="#394149"/>
<path d="M21.3253 13.7247C21.3253 11.5245 20.4404 9.41435 18.8652 7.85856C17.29 6.30275 15.1536 5.42871 12.9259 5.42871C10.6983 5.42871 8.56186 6.30275 6.98667 7.85856C5.41148 9.41435 4.52655 11.5245 4.52655 13.7247V38.811L11.4437 43.7062V55.6317H14.4082V43.7062L21.3253 38.811V13.7247ZM18.3608 27.7547L14.4082 31.6587V27.9987L18.3608 24.0947V27.7547ZM7.55279 24.0947L11.5054 27.9987V31.6587L7.55279 27.7547V24.0947ZM18.3608 19.9467L12.9259 25.3147L7.49103 19.8247V16.1647L12.9259 21.5327L18.3608 16.1647V19.9467ZM12.9259 8.35671C14.1212 8.36193 15.2818 8.75402 16.2299 9.47291C17.1781 10.1918 17.8615 11.1978 18.1755 12.337L12.9259 17.5067L7.67631 12.337C7.97884 11.1865 8.65732 10.1668 9.60651 9.43612C10.5557 8.70542 11.7225 8.30454 12.9259 8.2957V8.35671ZM7.49103 37.3317V31.8417L11.4437 35.7457V40.1072L7.49103 37.3317ZM14.4082 40.1225V35.7457L18.3608 31.8417V37.3165L14.4082 40.1225Z" fill="#394149"/>
</svg>
