<svg width="244" height="53" viewBox="0 0 244 53" fill="none" xmlns="http://www.w3.org/2000/svg">
<path d="M39.7277 23.612C39.0703 24.2653 38.5669 25.0538 38.2532 25.9211C37.9396 26.7886 37.8235 27.7136 37.9132 28.6304L37.882 28.5996C37.9743 29.6788 37.8268 30.7647 37.4502 31.7819C37.0736 32.7989 36.4769 33.7226 35.7017 34.4885C34.9263 35.2542 33.9911 35.8437 32.9612 36.2155C31.9315 36.5875 30.8319 36.7331 29.7394 36.6419L29.7706 36.6728C28.4637 36.5527 27.1511 36.8335 26.0116 37.4772C24.8722 38.1209 23.9615 39.096 23.4038 40.2696C22.8461 41.4432 22.6683 42.758 22.8949 44.0352C23.1216 45.3121 23.7414 46.489 24.67 47.4053C25.5985 48.3216 26.7906 48.9327 28.0837 49.1553C29.3769 49.378 30.7079 49.2012 31.8956 48.6493C33.0834 48.0973 34.0697 47.1971 34.7204 46.0711C35.3711 44.9451 35.6543 43.6485 35.5315 42.3576L35.5645 42.3885C35.4722 41.3094 35.6195 40.2233 35.9961 39.2061C36.3727 38.1891 36.9696 37.2654 37.7448 36.4996C38.5202 35.7339 39.4554 35.1443 40.4851 34.7725C41.5149 34.4006 42.6144 34.2549 43.7071 34.3461L43.6741 34.3152C44.7416 34.41 45.8163 34.2371 46.7983 33.8125C47.7801 33.388 48.6377 32.7254 49.2913 31.8864C49.945 31.0474 50.3738 30.0588 50.5375 29.0126C50.7015 27.9663 50.5953 26.8962 50.2289 25.9011C49.8626 24.9061 49.2478 24.0186 48.4417 23.3208C47.6356 22.6229 46.6642 22.1374 45.6175 21.9092C44.5708 21.6809 43.4826 21.7173 42.4539 22.0149C41.4253 22.3126 40.4894 22.8619 39.7329 23.612H39.7277Z" fill="#394149"/>
<path d="M26.9307 32.6325L26.8978 32.6017C27.8263 32.694 28.7641 32.5815 29.6434 32.272C30.5226 31.9626 31.3212 31.4642 31.9814 30.8126C32.6415 30.161 33.147 29.3726 33.4608 28.5044C33.7747 27.6363 33.8894 26.7102 33.7966 25.7929L33.8295 25.8237C33.7373 24.7445 33.8847 23.6586 34.2611 22.6414C34.6377 21.6243 35.2346 20.7007 36.0099 19.9348C36.7853 19.1691 37.7204 18.5796 38.7501 18.2078C39.78 17.8357 40.8795 17.6902 41.9721 17.7813L41.9392 17.7505C43.2463 17.8718 44.5592 17.5918 45.6993 16.9488C46.8395 16.3059 47.7509 15.3312 48.3095 14.1578C48.868 12.9844 49.0465 11.6694 48.8207 10.3921C48.5948 9.11475 47.9755 7.93738 47.0471 7.02051C46.1189 6.10365 44.9268 5.49192 43.6336 5.26881C42.3404 5.04569 41.009 5.222 39.821 5.77373C38.6329 6.32544 37.6462 7.22572 36.9952 8.35174C36.3441 9.47774 36.0607 10.7747 36.1835 12.0656L36.1523 12.0331C36.2447 13.1123 36.0976 14.1985 35.7212 15.2157C35.3448 16.2329 34.7479 17.1568 33.9727 17.9227C33.1973 18.6884 32.2619 19.2779 31.232 19.6497C30.202 20.0215 29.1024 20.1668 28.0097 20.0755L28.0409 20.108C27.1123 20.0157 26.1744 20.1283 25.2953 20.4377C24.4161 20.7469 23.6175 21.2455 22.9573 21.8971C22.297 22.5487 21.7917 23.3372 21.4778 24.2053C21.164 25.0735 21.0493 25.9995 21.1421 26.9168L21.1109 26.886C21.2028 27.965 21.0552 29.051 20.6786 30.068C20.3018 31.0849 19.7051 32.0085 18.9299 32.7742C18.1546 33.5399 17.2195 34.1293 16.1899 34.5014C15.1602 34.8734 14.0608 35.0192 12.9683 34.9284L12.9995 34.9592C11.6925 34.8379 10.3794 35.1179 9.23931 35.7609C8.09927 36.4039 7.18779 37.3785 6.6292 38.5519C6.0706 39.7254 5.89207 41.0404 6.11797 42.3176C6.34388 43.5949 6.96323 44.7723 7.89151 45.6892C8.81981 46.6061 10.0118 47.2178 11.3051 47.4409C12.5983 47.6639 13.9297 47.4876 15.1177 46.9359C16.3058 46.3843 17.2926 45.4841 17.9435 44.3581C18.5945 43.2319 18.878 41.9351 18.7552 40.6441L18.7881 40.6749C18.6958 39.5957 18.8433 38.5098 19.2199 37.4926C19.5963 36.4755 20.1932 35.5519 20.9685 34.786C21.7439 34.0203 22.679 33.4308 23.7087 33.059C24.7386 32.687 25.8381 32.5414 26.9307 32.6325Z" fill="#394149"/>
<path d="M15.3053 29.1942C15.9627 28.5411 16.4661 27.7526 16.7795 26.8851C17.0928 26.0177 17.2084 25.0925 17.118 24.1758L17.1509 24.2067C17.0587 23.1273 17.206 22.0408 17.5828 21.0235C17.9596 20.0061 18.5567 19.0823 19.3325 18.3164C20.1082 17.5506 21.0438 16.9612 22.074 16.5895C23.1042 16.2178 24.2042 16.0726 25.297 16.1643L25.2641 16.1334C26.5706 16.2543 27.8833 15.9742 29.0228 15.3313C30.1623 14.6884 31.0732 13.714 31.6315 12.541C32.1898 11.3679 32.3681 10.0534 32.1422 8.77653C31.9164 7.4997 31.2971 6.32278 30.3692 5.40625C29.4413 4.48971 28.2496 3.87819 26.9569 3.65508C25.6642 3.43195 24.3332 3.60812 23.1457 4.1595C21.9579 4.71089 20.9714 5.61068 20.3206 6.73617C19.6695 7.86166 19.3859 9.15807 19.5084 10.4486L19.4772 10.4177C19.5694 11.4969 19.422 12.5829 19.0454 13.6C18.6688 14.6171 18.0721 15.5408 17.2968 16.3066C16.5215 17.0724 15.5863 17.6618 14.5565 18.0337C13.5267 18.4057 12.4272 18.5513 11.3346 18.4601L11.3658 18.491C10.2982 18.3964 9.22374 18.5696 8.24195 18.9944C7.26016 19.4191 6.40279 20.0818 5.74932 20.921C5.09585 21.76 4.66742 22.7486 4.5037 23.7948C4.33999 24.8411 4.44631 25.9113 4.8128 26.906C5.17929 27.901 5.79411 28.7883 6.60027 29.486C7.40642 30.1838 8.37785 30.6692 9.42452 30.8974C10.4712 31.1255 11.5592 31.089 12.5878 30.7913C13.6164 30.4936 14.5523 29.9443 15.3087 29.1942H15.3053Z" fill="#394149"/>
<path d="M69.0403 12.1055H74.1923V36.8683H69.0403V12.1055Z" fill="#394149"/>
<path d="M77.1099 28.3886C77.1028 26.6092 77.6304 24.8674 78.6261 23.3843C79.6219 21.9013 81.0408 20.7434 82.7033 20.0575C84.3659 19.3715 86.197 19.1884 87.965 19.5312C89.733 19.874 91.3582 20.7273 92.6347 21.9831C93.9113 23.2389 94.7818 24.8406 95.136 26.5855C95.4902 28.3304 95.312 30.1398 94.6242 31.7846C93.9364 33.4293 92.7699 34.8356 91.2723 35.8248C89.7746 36.8143 88.0135 37.3425 86.2117 37.3425C85.0158 37.356 83.8292 37.1338 82.721 36.689C81.6129 36.2443 80.6058 35.5858 79.7584 34.7523C78.9108 33.9186 78.2402 32.9264 77.7855 31.8338C77.3307 30.7412 77.101 29.57 77.1099 28.3886ZM90.1616 28.3886C90.1401 27.6216 89.8901 26.8778 89.4431 26.2502C88.9959 25.6228 88.3714 25.1393 87.6477 24.8605C86.9238 24.5816 86.133 24.5196 85.3737 24.6823C84.6144 24.8451 83.9206 25.2251 83.3788 25.7753C82.8373 26.3253 82.4716 27.0209 82.3281 27.7751C82.1845 28.5291 82.269 29.3083 82.5713 30.0153C82.8737 30.7222 83.3802 31.3253 84.0276 31.7493C84.6752 32.1734 85.4349 32.3995 86.2117 32.3995C86.7438 32.4136 87.273 32.3185 87.7662 32.1204C88.2592 31.9224 88.7053 31.6256 89.0764 31.2489C89.4474 30.8719 89.7356 30.4232 89.9222 29.931C90.109 29.4387 90.1906 28.9136 90.1616 28.3886Z" fill="#394149"/>
<path d="M115.846 19.9078V36.0131C115.846 41.7117 111.346 44.1206 106.779 44.1206C105.171 44.2395 103.561 43.9186 102.125 43.1934C100.689 42.4679 99.4834 41.3661 98.6398 40.0086L103.036 37.4986C103.39 38.2062 103.955 38.7899 104.655 39.1718C105.354 39.5536 106.155 39.7153 106.951 39.6351C107.459 39.7047 107.977 39.6605 108.465 39.5058C108.954 39.351 109.401 39.0898 109.774 38.7414C110.146 38.393 110.435 37.9663 110.618 37.4928C110.801 37.0194 110.874 36.5114 110.831 36.0063V34.4557C110.228 35.1847 109.46 35.764 108.589 36.1469C107.718 36.5299 106.769 36.7058 105.816 36.6608C103.55 36.5902 101.401 35.6516 99.8237 34.0435C98.2462 32.4355 97.3641 30.2842 97.3641 28.0453C97.3641 25.8063 98.2462 23.655 99.8237 22.047C101.401 20.4389 103.55 19.5003 105.816 19.4298C106.769 19.3847 107.718 19.5607 108.589 19.9436C109.46 20.3265 110.228 20.9058 110.831 21.6348V19.9043L115.846 19.9078ZM110.833 28.0478C110.868 27.2278 110.653 26.4162 110.217 25.7177C109.78 25.019 109.142 24.4654 108.385 24.1281C107.627 23.7905 106.785 23.6848 105.966 23.8243C105.147 23.9638 104.389 24.3421 103.79 24.9107C103.19 25.4792 102.777 26.2118 102.603 27.0143C102.428 27.8169 102.501 28.6526 102.812 29.4139C103.123 30.1751 103.657 30.8272 104.346 31.286C105.035 31.7449 105.847 31.9895 106.678 31.9885C107.22 32.0259 107.763 31.9508 108.273 31.7682C108.783 31.5855 109.249 31.2992 109.64 30.9281C110.032 30.5568 110.34 30.1088 110.545 29.6126C110.751 29.1166 110.849 28.5836 110.833 28.0478Z" fill="#394149"/>
<path d="M118.765 28.3886C118.758 26.6092 119.285 24.8674 120.281 23.3843C121.277 21.9013 122.696 20.7434 124.358 20.0575C126.021 19.3715 127.852 19.1884 129.62 19.5312C131.388 19.874 133.013 20.7273 134.29 21.9831C135.566 23.2389 136.437 24.8406 136.791 26.5855C137.145 28.3304 136.967 30.1398 136.279 31.7846C135.591 33.4293 134.425 34.8356 132.927 35.8248C131.429 36.8143 129.668 37.3425 127.867 37.3425C126.671 37.356 125.484 37.1338 124.376 36.689C123.268 36.2443 122.261 35.5858 121.413 34.7523C120.566 33.9186 119.895 32.9264 119.44 31.8338C118.986 30.7412 118.756 29.57 118.765 28.3886ZM131.816 28.3886C131.795 27.6216 131.545 26.8778 131.098 26.2502C130.651 25.6228 130.026 25.1393 129.303 24.8605C128.579 24.5816 127.788 24.5196 127.029 24.6823C126.269 24.8451 125.575 25.2251 125.034 25.7753C124.492 26.3253 124.126 27.0209 123.983 27.7751C123.839 28.5291 123.924 29.3083 124.226 30.0153C124.529 30.7222 125.035 31.3253 125.682 31.7493C126.33 32.1734 127.09 32.3995 127.867 32.3995C128.399 32.4136 128.928 32.3185 129.421 32.1204C129.914 31.9224 130.36 31.6256 130.731 31.2489C131.102 30.8719 131.39 30.4232 131.577 29.931C131.764 29.4387 131.845 28.9136 131.816 28.3886Z" fill="#394149"/>
<path d="M139.37 15.3622C139.37 14.7584 139.552 14.1681 139.891 13.666C140.231 13.1639 140.714 12.7726 141.279 12.5415C141.843 12.3104 142.465 12.2499 143.065 12.3677C143.664 12.4856 144.215 12.7763 144.647 13.2033C145.08 13.6303 145.374 14.1743 145.493 14.7666C145.613 15.3589 145.551 15.9727 145.318 16.5306C145.084 17.0885 144.687 17.5654 144.179 17.9009C143.671 18.2364 143.073 18.4154 142.462 18.4154C141.644 18.4074 140.863 18.0832 140.285 17.5123C139.707 16.9414 139.378 16.1695 139.37 15.3622ZM139.891 19.9077H145.044V36.8697H139.884L139.891 19.9077Z" fill="#394149"/>
<path d="M167.291 28.3889C167.35 29.5099 167.185 30.6315 166.804 31.6891C166.423 32.7467 165.834 33.7196 165.072 34.5517C164.309 35.3837 163.387 36.0588 162.359 36.5378C161.331 37.0167 160.218 37.2903 159.082 37.3428C158.127 37.3942 157.173 37.2352 156.288 36.8772C155.404 36.5192 154.611 35.9712 153.967 35.273V43.653H148.815V19.9079H153.967V21.5013C154.611 20.8036 155.404 20.256 156.289 19.8984C157.174 19.5407 158.128 19.3819 159.082 19.4333C160.218 19.4855 161.332 19.759 162.36 20.238C163.388 20.7171 164.31 21.3921 165.073 22.2245C165.836 23.0568 166.424 24.03 166.805 25.088C167.186 26.1458 167.351 27.2677 167.291 28.3889ZM162.139 28.3889C162.119 27.5951 161.862 26.8248 161.401 26.1742C160.939 25.5238 160.294 25.0222 159.546 24.7323C158.797 24.4422 157.979 24.3766 157.193 24.5438C156.407 24.7109 155.689 25.1032 155.127 25.6717C154.566 26.2404 154.187 26.9596 154.037 27.74C153.888 28.5203 153.975 29.3266 154.287 30.0583C154.6 30.7901 155.124 31.4144 155.794 31.8536C156.464 32.2925 157.25 32.5267 158.054 32.5266C158.606 32.5509 159.156 32.4596 159.67 32.2588C160.184 32.0581 160.649 31.7523 161.035 31.3617C161.42 30.9709 161.718 30.5042 161.908 29.9919C162.099 29.4796 162.177 28.9332 162.139 28.3889Z" fill="#394149"/>
<path d="M183.189 31.7797C183.189 35.681 179.756 37.3429 176.047 37.3429C174.548 37.4769 173.044 37.164 171.727 36.4443C170.411 35.7246 169.343 34.6315 168.663 33.3063L173.126 30.7962C173.306 31.4088 173.694 31.9418 174.225 32.3059C174.755 32.6701 175.397 32.8437 176.04 32.7974C177.275 32.7974 177.894 32.4239 177.894 31.7471C177.894 29.8796 169.445 30.8648 169.445 24.9966C169.445 21.2975 172.605 19.4334 176.177 19.4334C177.52 19.3914 178.849 19.706 180.026 20.3442C181.204 20.9826 182.188 21.9212 182.873 23.0622L178.477 25.4027C178.285 24.9584 177.964 24.5799 177.555 24.3145C177.145 24.0491 176.666 23.9086 176.177 23.9103C175.284 23.9103 174.734 24.253 174.734 24.8595C174.741 26.7939 183.189 25.5037 183.189 31.7797Z" fill="#394149"/>
<path d="M202.008 19.9077V36.8697H196.856V35.2746C196.261 35.9785 195.507 36.5331 194.653 36.8929C193.8 37.2527 192.873 37.4074 191.947 37.3443C188.478 37.3443 185.529 34.9028 185.529 30.3196V19.9077H190.681V29.5743C190.637 29.9784 190.684 30.3868 190.818 30.7711C190.95 31.1556 191.167 31.5068 191.451 31.8003C191.736 32.0938 192.081 32.3225 192.464 32.4707C192.846 32.6189 193.257 32.683 193.668 32.6583C195.557 32.6583 196.861 31.5738 196.861 29.1649V19.9129L202.008 19.9077Z" fill="#394149"/>
<path d="M231.551 26.4544V36.868H226.399V26.8947C226.399 25.1985 225.575 24.114 223.927 24.114C222.209 24.114 221.247 25.3013 221.247 27.3025V36.868H216.096V26.8947C216.096 25.1985 215.272 24.114 213.623 24.114C211.905 24.114 210.944 25.3013 210.944 27.3025V36.868H205.792V19.906H210.944V21.4651C211.479 20.7735 212.18 20.2249 212.983 19.8697C213.788 19.5143 214.669 19.3637 215.547 19.4314C216.428 19.3887 217.306 19.5726 218.095 19.9648C218.882 20.3568 219.554 20.9441 220.045 21.669C220.615 20.9105 221.372 20.3074 222.242 19.9161C223.113 19.5248 224.071 19.3581 225.025 19.4314C228.968 19.4331 231.551 22.2139 231.551 26.4544Z" fill="#394149"/>
<path d="M235.907 19.8034C238.019 19.8034 239.731 18.1126 239.731 16.0272C239.731 13.9416 238.019 12.251 235.907 12.251C233.796 12.251 232.084 13.9416 232.084 16.0272C232.084 18.1126 233.796 19.8034 235.907 19.8034Z" fill="#394149"/>
</svg>
