<svg width="32" height="32" viewBox="0 0 32 32" fill="none" xmlns="http://www.w3.org/2000/svg">
<path d="M13.8669 4.2666C7.98526 4.2666 3.2002 8.3338 3.2002 13.3333C3.2002 15.0282 3.74566 16.6644 4.78353 18.0937L4.1627 22.9499L8.45228 21.1479C9.83035 21.8382 11.3726 22.2348 12.9835 22.3479C13.7727 25.4884 17.0504 27.7333 20.8002 27.7333C22.3495 27.7333 23.7572 27.2945 24.9919 26.6333L28.0939 28.3749L27.621 24.3562C28.3243 23.343 28.8002 22.1712 28.8002 20.8874C28.8002 18.1525 26.9656 15.8805 24.3773 14.7729C24.4705 14.2915 24.5335 13.8104 24.5335 13.3333C24.5335 8.3338 19.7485 4.2666 13.8669 4.2666ZM10.2002 9.78327C11.0301 9.78327 11.7002 10.4535 11.7002 11.2812C11.7002 12.1089 11.029 12.7833 10.2002 12.7833C9.37139 12.7833 8.70019 12.1111 8.70019 11.2812C8.70019 10.4535 9.37139 9.78327 10.2002 9.78327ZM18.3835 9.78327C19.2123 9.78327 19.8835 10.4535 19.8835 11.2812C19.8835 12.1111 19.2123 12.7833 18.3835 12.7833C17.5526 12.7833 16.8835 12.1111 16.8835 11.2812C16.8835 10.4524 17.5547 9.78327 18.3835 9.78327ZM20.8002 16.177C24.1492 16.177 26.6669 18.3876 26.6669 20.8874C26.6669 21.835 26.3231 22.7124 25.6981 23.4729L25.4106 23.8229L25.4627 24.2729L25.4856 24.4645L25.0127 24.1999L24.471 24.5499C23.4747 25.1969 22.2012 25.5999 20.8002 25.5999C17.4512 25.5999 14.9335 23.3873 14.9335 20.8874C14.9335 18.3889 17.4514 16.177 20.8002 16.177ZM18.1189 18.5916C17.4896 18.5916 16.9835 19.0998 16.9835 19.727C16.9835 20.3542 17.4907 20.8645 18.1189 20.8645C18.7451 20.8645 19.2554 20.3542 19.2564 19.727C19.2564 19.0998 18.7461 18.5916 18.1189 18.5916ZM23.5023 18.5916C22.8761 18.5916 22.3669 19.0998 22.3669 19.727C22.3669 20.3542 22.8751 20.8645 23.5023 20.8645C24.1305 20.8645 24.6419 20.3542 24.6419 19.727C24.6419 19.0998 24.1305 18.5916 23.5023 18.5916Z" fill="black"/>
</svg>
