<svg width="25" height="24" viewBox="0 0 25 24" fill="none" xmlns="http://www.w3.org/2000/svg">
<path d="M14.015 24H8.68164V8H14.015V10.6667C15.1518 9.22034 16.8758 8.3581 18.715 8.316C22.0224 8.33436 24.6912 11.0258 24.6817 14.3333V24H19.3483V15C19.135 13.5102 17.8573 12.4048 16.3523 12.408C15.694 12.4288 15.0726 12.717 14.6316 13.2062C14.1905 13.6953 13.9678 14.3431 14.015 15V24ZM6.01497 24H0.681641V8H6.01497V24ZM3.34831 5.33333C1.87555 5.33333 0.681641 4.13943 0.681641 2.66667C0.681641 1.19391 1.87555 0 3.34831 0C4.82107 0 6.01497 1.19391 6.01497 2.66667C6.01497 3.37391 5.73402 4.05219 5.23393 4.55229C4.73383 5.05238 4.05555 5.33333 3.34831 5.33333Z" fill="#D9DBE9"/>
</svg>
