<svg width="67" height="67" viewBox="0 0 67 67" fill="none" xmlns="http://www.w3.org/2000/svg">
<path d="M20.0137 33.3315C20.0152 39.8907 24.7849 45.4755 31.263 46.5035V37.1848H27.8803V33.3315H31.267V30.3982C31.1156 29.0082 31.5904 27.623 32.5625 26.6181C33.5347 25.6132 34.9035 25.0929 36.2977 25.1982C37.2984 25.2143 38.2966 25.3035 39.2843 25.4648V28.7435H37.599C37.0188 28.6675 36.4355 28.8591 36.0134 29.2644C35.5913 29.6697 35.376 30.2447 35.4283 30.8275V33.3315H39.123L38.5323 37.1862H35.4283V46.5035C42.4343 45.3963 47.3471 38.9979 46.6077 31.9436C45.8682 24.8893 39.7354 19.6487 32.6521 20.0184C25.5688 20.3881 20.0148 26.2386 20.0137 33.3315Z" fill="#D9DBE9"/>
</svg>
