<svg width="1200" height="400" viewBox="0 0 1200 400" fill="none" xmlns="http://www.w3.org/2000/svg">
<rect x="0.5" y="0.5" width="1199" height="399" rx="7.5" fill="#D9DBE9" stroke="#6E7191"/>
<path d="M607.256 183.334C612.884 183.334 616.666 187.27 616.666 193.147V206.837C616.666 207.089 616.621 207.314 616.608 207.557C616.599 207.699 616.601 207.84 616.589 207.982C616.583 208.045 616.564 208.104 616.558 208.167C616.503 208.69 616.418 209.19 616.299 209.675C616.269 209.805 616.234 209.93 616.199 210.057C616.066 210.527 615.909 210.975 615.721 211.404C615.666 211.524 615.606 211.639 615.549 211.757C615.346 212.165 615.126 212.557 614.871 212.92L614.624 213.24C614.359 213.584 614.083 213.912 613.769 214.21C613.668 214.307 613.553 214.39 613.446 214.482C613.124 214.759 612.796 215.024 612.434 215.25C612.304 215.332 612.161 215.392 612.028 215.465C611.659 215.669 611.288 215.867 610.883 216.02C610.716 216.084 610.531 216.117 610.358 216.172C609.959 216.295 609.566 216.424 609.138 216.497C609.03 216.516 608.919 216.529 608.806 216.54L608.123 216.589C607.833 216.61 607.558 216.667 607.256 216.667H592.729C592.103 216.667 591.504 216.604 590.926 216.509C590.904 216.505 590.884 216.502 590.864 216.499C588.609 216.11 586.738 215.022 585.426 213.38C585.411 213.38 585.411 213.364 585.396 213.349C584.078 211.689 583.333 209.457 583.333 206.837V193.147C583.333 187.27 587.118 183.334 592.729 183.334H607.256ZM607.256 185.659H592.729C588.434 185.659 585.659 188.604 585.659 193.147V206.837C585.659 208.112 585.896 209.25 586.301 210.235C586.353 210.174 589.581 206.237 589.596 206.224C590.749 204.907 592.914 202.944 595.756 204.132C596.439 204.415 597.039 204.814 597.589 205.164C598.544 205.802 599.106 206.102 599.689 206.052C599.931 206.019 600.158 205.947 600.373 205.814C601.303 205.24 603.931 201.407 604.089 201.199C605.906 198.832 608.706 198.199 611.039 199.599C611.196 199.692 611.835 200.131 612.529 200.625L613.052 201.001C613.572 201.379 614.062 201.747 614.341 201.984V193.147C614.341 188.604 611.566 185.659 607.256 185.659ZM594.131 190C595.294 190 596.347 190.489 597.101 191.269C597.859 192.022 598.334 193.059 598.334 194.191C598.334 196.45 596.444 198.333 594.175 198.333C592.18 198.333 590.48 196.876 590.099 194.989C590.036 194.706 590 194.415 590 194.114C590 191.84 591.848 190 594.131 190Z" fill="#6E7191"/>
</svg>
