<svg width="48" height="48" viewBox="0 0 48 48" fill="none" xmlns="http://www.w3.org/2000/svg">
<circle cx="24" cy="24" r="23.5" stroke="#DEDEDE"/>
<path d="M31.995 18.688C32.8914 18.1521 33.5622 17.3082 33.882 16.314C33.0397 16.8138 32.118 17.1659 31.157 17.355C29.8246 15.9455 27.7135 15.6025 26.0034 16.5176C24.2933 17.4328 23.4075 19.3795 23.841 21.27C20.3906 21.0968 17.176 19.4669 14.997 16.786C13.8599 18.7474 14.441 21.2548 16.325 22.516C15.6437 22.4941 14.9775 22.3096 14.382 21.978C14.382 21.996 14.382 22.014 14.382 22.032C14.3824 24.0751 15.8224 25.8351 17.825 26.24C17.1931 26.4119 16.5302 26.4372 15.887 26.314C16.4502 28.0613 18.0606 29.2583 19.896 29.294C18.3758 30.4871 16.4985 31.1342 14.566 31.131C14.2235 31.1315 13.8812 31.1118 13.541 31.072C15.5034 32.333 17.7874 33.0023 20.12 33C23.3653 33.0223 26.484 31.7429 28.7787 29.448C31.0734 27.1531 32.3526 24.0342 32.33 20.789C32.33 20.603 32.3257 20.418 32.317 20.234C33.1575 19.6266 33.8828 18.8741 34.459 18.012C33.676 18.3591 32.8455 18.5869 31.995 18.688Z" fill="#146764"/>
</svg>
