<svg width="65" height="64" viewBox="0 0 65 64" fill="none" xmlns="http://www.w3.org/2000/svg">
<path d="M34.015 44H28.6816V28H34.015V30.6667C35.1518 29.2203 36.8758 28.3581 38.715 28.316C42.0224 28.3344 44.6912 31.0258 44.6817 34.3333V44H39.3483V35C39.135 33.5102 37.8573 32.4048 36.3523 32.408C35.694 32.4288 35.0726 32.717 34.6316 33.2062C34.1905 33.6953 33.9678 34.3431 34.015 35V44ZM26.015 44H20.6816V28H26.015V44ZM23.3483 25.3333C21.8755 25.3333 20.6816 24.1394 20.6816 22.6667C20.6816 21.1939 21.8755 20 23.3483 20C24.8211 20 26.015 21.1939 26.015 22.6667C26.015 23.3739 25.734 24.0522 25.2339 24.5523C24.7338 25.0524 24.0556 25.3333 23.3483 25.3333Z" fill="#D9DBE9"/>
</svg>
