<svg width="223" height="56" viewBox="0 0 223 56" fill="none" xmlns="http://www.w3.org/2000/svg">
<path d="M25.695 10.9236V3.94238H3.40948V51.9073H25.695V44.9261C21.1298 44.9261 16.7515 43.1348 13.5235 39.9465C10.2955 36.7581 8.48194 32.4339 8.48194 27.9249C8.48194 23.4158 10.2955 19.0914 13.5235 15.9031C16.7515 12.7148 21.1298 10.9236 25.695 10.9236Z" fill="#394149"/>
<path d="M25.6955 10.9238V44.9264C30.2607 44.9264 34.639 43.1351 37.867 39.9467C41.0951 36.7584 42.9086 32.4342 42.9086 27.9251C42.9086 23.4161 41.0951 19.0917 37.867 15.9034C34.639 12.715 30.2607 10.9238 25.6955 10.9238Z" fill="#394149"/>
<path d="M55.4144 15.1943H60.4037V38.9304H55.4144V15.1943Z" fill="#394149"/>
<path d="M63.1982 30.7994C63.1982 29.0918 63.7116 27.4225 64.6732 26.0033C65.6348 24.584 67.0014 23.4787 68.5998 22.8274C70.1982 22.1763 71.9563 22.0084 73.6513 22.3451C75.3463 22.6819 76.902 23.5081 78.121 24.7191C79.3401 25.9302 80.1678 27.4713 80.4991 29.1474C80.8302 30.8236 80.6503 32.559 79.9817 34.134C79.3131 35.7088 78.1864 37.0523 76.744 37.9939C75.3016 38.9356 73.6085 39.433 71.8796 39.4233C70.7329 39.4321 69.5958 39.2148 68.5353 38.7838C67.4747 38.3529 66.5118 37.7172 65.7032 36.9141C64.8946 36.1109 64.2566 35.1562 63.8264 34.1062C63.3963 33.0563 63.1827 31.932 63.1982 30.7994ZM75.7047 30.7994C75.6851 30.0632 75.4461 29.349 75.0177 28.7463C74.5893 28.1435 73.9906 27.6788 73.296 27.4103C72.6017 27.1419 71.8427 27.0817 71.1139 27.2372C70.385 27.3926 69.7187 27.7568 69.1983 28.2844C68.6779 28.8118 68.3265 29.4791 68.1882 30.2028C68.0498 30.9266 68.1305 31.6745 68.4202 32.353C68.7099 33.0316 69.1957 33.611 69.817 34.0182C70.4382 34.4256 71.1671 34.6429 71.9128 34.6432C72.4206 34.6531 72.9248 34.5593 73.3942 34.3677C73.8635 34.1764 74.2878 33.8914 74.6405 33.5306C74.9932 33.1699 75.2668 32.741 75.4443 32.2712C75.6217 31.8013 75.6991 31.3003 75.6715 30.7994H75.7047Z" fill="#394149"/>
<path d="M100.302 22.6686V38.1258C100.302 43.5794 95.9778 45.8955 91.6038 45.8955C90.0609 46.0205 88.5134 45.7178 87.1355 45.0213C85.7575 44.3248 84.6036 43.2622 83.8039 41.9532L88.0115 39.5549C88.3524 40.234 88.8948 40.7941 89.5663 41.1609C90.2379 41.5277 91.0066 41.6838 91.7701 41.6082C92.2566 41.6673 92.7502 41.6197 93.2157 41.4686C93.6813 41.3173 94.1073 41.0665 94.4632 40.7337C94.8192 40.4009 95.0963 39.9947 95.2748 39.5437C95.4532 39.093 95.5286 38.6088 95.4955 38.1258V36.631C94.9149 37.3264 94.1781 37.8783 93.3439 38.2433C92.5095 38.6083 91.6006 38.7761 90.6891 38.7336C88.4837 38.7336 86.3687 37.8683 84.8092 36.328C83.2497 34.7878 82.3736 32.6987 82.3736 30.5204C82.3736 28.3421 83.2497 26.2532 84.8092 24.7129C86.3687 23.1726 88.4837 22.3072 90.6891 22.3072C91.6006 22.2647 92.5095 22.4326 93.3439 22.7976C94.1781 23.1626 94.9149 23.7145 95.4955 24.4098V22.7672L100.302 22.6686ZM95.4955 30.4711C95.5286 29.6853 95.323 28.9075 94.9051 28.238C94.4871 27.5684 93.8761 27.0377 93.1502 26.7139C92.4244 26.3902 91.6173 26.2883 90.8323 26.4214C90.0475 26.5544 89.3207 26.9163 88.7458 27.4605C88.1708 28.0047 87.7738 28.7065 87.6059 29.4754C87.4379 30.2443 87.5066 31.0451 87.8031 31.7751C88.0998 32.5051 88.6107 33.1307 89.2701 33.5716C89.9297 34.0125 90.7077 34.2485 91.504 34.2492C92.0237 34.2862 92.5454 34.215 93.0354 34.0406C93.5255 33.866 93.9732 33.5918 94.3492 33.2357C94.7254 32.8797 95.0218 32.4497 95.2192 31.9735C95.4166 31.4973 95.5108 30.9855 95.4955 30.4711Z" fill="#394149"/>
<path d="M103.113 30.7996C103.113 29.0933 103.625 27.4253 104.585 26.0068C105.545 24.5882 106.91 23.4829 108.506 22.8307C110.103 22.1784 111.859 22.0086 113.553 22.3427C115.248 22.6768 116.803 23.4998 118.024 24.7074C119.244 25.9153 120.074 27.4534 120.409 29.1273C120.744 30.8013 120.569 32.5357 119.906 34.1112C119.242 35.6868 118.121 37.0325 116.683 37.9781C115.245 38.9238 113.555 39.4268 111.827 39.4235C110.678 39.4345 109.539 39.2188 108.475 38.7891C107.412 38.3594 106.446 37.7243 105.634 36.9211C104.823 36.1178 104.181 35.1626 103.748 34.1115C103.315 33.0604 103.099 31.9344 103.113 30.7996ZM115.619 30.7996C115.599 30.0628 115.36 29.3479 114.931 28.7447C114.502 28.1417 113.902 27.677 113.207 27.4091C112.511 27.1412 111.751 27.0819 111.022 27.2387C110.293 27.3954 109.627 27.7614 109.107 28.2905C108.587 28.8196 108.237 29.4885 108.101 30.2132C107.964 30.938 108.047 31.6863 108.339 32.3646C108.632 33.043 109.12 33.621 109.743 34.0264C110.367 34.4317 111.097 34.6464 111.844 34.6434C112.352 34.6533 112.856 34.5595 113.325 34.3679C113.794 34.1766 114.219 33.8916 114.571 33.5309C114.924 33.1701 115.198 32.7412 115.375 32.2714C115.553 31.8015 115.63 31.3005 115.602 30.7996H115.619Z" fill="#394149"/>
<path d="M122.853 18.3155C122.853 17.7373 123.027 17.1719 123.352 16.6911C123.678 16.2102 124.14 15.8355 124.681 15.6142C125.222 15.3929 125.817 15.335 126.391 15.4478C126.965 15.5606 127.493 15.8391 127.907 16.248C128.321 16.6569 128.603 17.178 128.717 17.745C128.831 18.3122 128.773 18.9001 128.549 19.4345C128.325 19.9686 127.945 20.4253 127.458 20.7466C126.972 21.0679 126.399 21.2394 125.814 21.2394C125.031 21.2308 124.283 20.9201 123.73 20.3736C123.177 19.827 122.862 19.0884 122.853 18.3155ZM123.336 22.6685H128.325V38.9306H123.336V22.6685Z" fill="#394149"/>
<path d="M149.679 30.7995C149.735 31.881 149.573 32.9628 149.204 33.9826C148.835 35.0023 148.266 35.9399 147.529 36.7414C146.791 37.543 145.901 38.1925 144.908 38.6528C143.916 39.113 142.841 39.3749 141.746 39.4233C140.816 39.4844 139.885 39.3374 139.021 38.9933C138.157 38.649 137.383 38.1166 136.756 37.4357V45.4682H131.767V22.6684H136.756V24.1961C137.384 23.5172 138.158 22.9873 139.022 22.6459C139.886 22.3044 140.817 22.1605 141.746 22.2249C142.837 22.2734 143.907 22.5337 144.896 22.9909C145.885 23.448 146.774 24.0933 147.51 24.8894C148.247 25.6856 148.818 26.6173 149.19 27.6315C149.562 28.6455 149.728 29.7219 149.679 30.7995ZM144.689 30.7995C144.67 30.0365 144.422 29.2963 143.979 28.6716C143.535 28.0469 142.914 27.5653 142.195 27.2875C141.475 27.0096 140.688 26.9478 139.933 27.1096C139.178 27.2714 138.488 27.6499 137.95 28.1974C137.412 28.7449 137.049 29.4371 136.907 30.1874C136.766 30.9376 136.851 31.7125 137.154 32.4149C137.456 33.1171 137.961 33.7157 138.607 34.1355C139.252 34.5554 140.008 34.7776 140.781 34.7747C141.31 34.7968 141.838 34.7083 142.33 34.5148C142.823 34.3213 143.268 34.0273 143.637 33.6519C144.006 33.2766 144.29 32.8283 144.472 32.3368C144.653 31.8452 144.727 31.3214 144.689 30.7995Z" fill="#394149"/>
<path d="M164.863 34.0519C164.863 37.7971 161.537 39.3905 158.011 39.3905C156.573 39.5183 155.129 39.2172 153.866 38.5261C152.603 37.835 151.579 36.7857 150.926 35.5138L155.217 33.1156C155.387 33.7017 155.756 34.2124 156.261 34.5623C156.767 34.9121 157.379 35.0799 157.994 35.0375C159.175 35.0375 159.774 34.6761 159.774 34.019C159.774 32.2286 151.675 33.1813 151.675 27.5471C151.675 23.999 154.701 22.2249 158.127 22.2249C159.43 22.1673 160.724 22.4592 161.871 23.0694C163.019 23.6796 163.978 24.5856 164.647 25.6909L160.356 27.9249C160.166 27.5011 159.857 27.1407 159.464 26.8871C159.072 26.6334 158.613 26.4976 158.144 26.4958C157.279 26.4958 156.764 26.8243 156.764 27.3992C156.764 29.2718 164.863 28.0399 164.863 34.0519Z" fill="#394149"/>
<path d="M182.941 22.6685V38.9305H177.952V37.4029C177.385 38.0792 176.664 38.6142 175.851 38.9652C175.036 39.3162 174.15 39.4731 173.262 39.4233C169.936 39.4233 167.092 37.0744 167.092 32.6885V22.6685H172.081V31.9493C172.041 32.3373 172.088 32.7291 172.217 33.0977C172.347 33.4662 172.555 33.8026 172.828 34.0838C173.102 34.3648 173.435 34.584 173.802 34.7261C174.17 34.868 174.564 34.9294 174.958 34.9061C176.754 34.9061 178.018 33.8548 178.018 31.6208V22.6685H182.941Z" fill="#394149"/>
<path d="M211.214 28.9431V38.9303H206.224V29.3702C206.224 27.7276 205.443 26.7091 203.863 26.7091C202.283 26.7091 201.285 27.8425 201.285 29.7644V38.9303H196.296V29.3702C196.296 27.7276 195.514 26.7091 193.934 26.7091C192.354 26.7091 191.356 27.8425 191.356 29.7644V38.9303H186.367V22.6682H191.356V24.163C191.873 23.5027 192.547 22.9797 193.32 22.6413C194.092 22.3029 194.939 22.1597 195.78 22.2247C196.623 22.1812 197.465 22.3553 198.22 22.7297C198.975 23.104 199.619 23.666 200.088 24.3602C200.636 23.6348 201.361 23.0585 202.196 22.6852C203.03 22.3116 203.948 22.1533 204.861 22.2247C208.752 22.2247 211.214 24.8858 211.214 28.9431Z" fill="#394149"/>
<path d="M215.405 22.5699C217.426 22.5699 219.064 20.9519 219.064 18.9561C219.064 16.9603 217.426 15.3423 215.405 15.3423C213.384 15.3423 211.746 16.9603 211.746 18.9561C211.746 20.9519 213.384 22.5699 215.405 22.5699Z" fill="#394149"/>
</svg>
