<svg width="24" height="24" viewBox="0 0 24 24" fill="none" xmlns="http://www.w3.org/2000/svg">
<path d="M16 2.1333C15.4112 2.1333 14.9333 2.61117 14.9333 3.19997V3.3833C14.9333 3.89317 14.5743 4.34807 14.0708 4.42913C13.8265 4.4686 13.5847 4.51432 13.3458 4.56872C12.8509 4.68178 12.3504 4.40157 12.1562 3.9333L12.0854 3.76663C11.8603 3.22263 11.2367 2.96342 10.6916 3.18955C10.1476 3.41462 9.88842 4.03823 10.1146 4.5833L10.1854 4.75413C10.3817 5.22347 10.2247 5.77908 9.79163 6.04788C9.58257 6.17802 9.3786 6.31435 9.17913 6.45622C8.76527 6.75168 8.19277 6.68443 7.8333 6.32497L7.70413 6.1958C7.28707 5.77873 6.6118 5.77873 6.1958 6.1958C5.7798 6.61287 5.7798 7.28813 6.1958 7.70413L6.32497 7.8333C6.68443 8.19277 6.75168 8.7642 6.45622 9.17913C6.31435 9.3786 6.17802 9.58257 6.04788 9.79163C5.77908 10.2247 5.22245 10.3827 4.75205 10.1875L4.5833 10.1166C4.0393 9.89157 3.4136 10.1497 3.18747 10.6937C2.9624 11.2377 3.22055 11.8613 3.76455 12.0875L3.93122 12.1562C4.39948 12.3504 4.68178 12.8509 4.56872 13.3458C4.51432 13.5847 4.46652 13.8265 4.42705 14.0708C4.34705 14.5732 3.89317 14.9333 3.3833 14.9333H3.19997C2.61117 14.9333 2.1333 15.4112 2.1333 16C2.1333 16.5888 2.61117 17.0666 3.19997 17.0666H3.3833C3.89317 17.0666 4.34807 17.4257 4.42913 17.9291C4.4686 18.1734 4.51432 18.4152 4.56872 18.6541C4.68178 19.1491 4.40157 19.6496 3.9333 19.8437L3.76663 19.9146C3.22263 20.1396 2.96342 20.7632 3.18955 21.3083C3.41462 21.8523 4.03823 22.1115 4.5833 21.8854L4.75413 21.8146C5.22453 21.6194 5.7801 21.7763 6.04997 22.2083C6.1801 22.4174 6.31537 22.6224 6.4583 22.8229C6.75377 23.2368 6.68652 23.8093 6.32705 24.1687L6.1958 24.2979C5.77873 24.715 5.77873 25.3902 6.1958 25.8062C6.61287 26.2222 7.28813 26.2233 7.70413 25.8062L7.83538 25.6771C8.19485 25.3176 8.76527 25.2483 9.17913 25.5437C9.37967 25.6867 9.58465 25.824 9.79372 25.9541C10.2257 26.2229 10.3848 26.7796 10.1896 27.25L10.1187 27.4187C9.89365 27.9627 10.1518 28.5884 10.6958 28.8146C11.2398 29.0396 11.8634 28.7815 12.0896 28.2375L12.1583 28.0708C12.3524 27.6025 12.853 27.3202 13.3479 27.4333C13.5868 27.4877 13.8286 27.5355 14.0729 27.575C14.5732 27.6528 14.9333 28.1068 14.9333 28.6166V28.8C14.9333 29.3888 15.4112 29.8666 16 29.8666C16.5888 29.8666 17.0666 29.3888 17.0666 28.8V28.6166C17.0666 28.1068 17.4257 27.6519 17.9291 27.5708C18.1734 27.5313 18.4152 27.4856 18.6541 27.4312C19.1491 27.3182 19.6496 27.5984 19.8437 28.0666L19.9146 28.2333C20.1396 28.7773 20.7632 29.0365 21.3083 28.8104C21.8523 28.5853 22.1115 27.9617 21.8854 27.4166L21.8146 27.2458C21.6194 26.7754 21.7763 26.2198 22.2083 25.95C22.4174 25.8198 22.6224 25.6846 22.8229 25.5416C23.2368 25.2462 23.8093 25.3134 24.1687 25.6729L24.2979 25.8041C24.715 26.2212 25.3902 26.2212 25.8062 25.8041C26.2222 25.3871 26.2233 24.7118 25.8062 24.2958L25.6771 24.1646C25.3176 23.8051 25.2483 23.2347 25.5437 22.8208C25.6867 22.6203 25.824 22.4153 25.9541 22.2062C26.2229 21.7742 26.7796 21.6152 27.25 21.8104L27.4187 21.8812C27.9627 22.1063 28.5884 21.8481 28.8146 21.3041C29.0396 20.7601 28.7815 20.1365 28.2375 19.9104L28.0708 19.8416C27.6025 19.6475 27.3202 19.147 27.4333 18.6521C27.4877 18.4131 27.5355 18.1713 27.575 17.9271C27.6528 17.4268 28.1068 17.0666 28.6166 17.0666H28.8C29.3888 17.0666 29.8666 16.5888 29.8666 16C29.8666 15.4112 29.3888 14.9333 28.8 14.9333H28.6166C28.1068 14.9333 27.6519 14.5743 27.5708 14.0708C27.5313 13.8265 27.4856 13.5847 27.4312 13.3458C27.3182 12.8509 27.5984 12.3504 28.0666 12.1562L28.2333 12.0854C28.7773 11.8603 29.0365 11.2367 28.8104 10.6916C28.5853 10.1476 27.9617 9.88842 27.4166 10.1146L27.2458 10.1854C26.7754 10.3806 26.2198 10.2236 25.95 9.79163C25.8198 9.58257 25.6846 9.37758 25.5416 9.17705C25.2462 8.76318 25.3134 8.19068 25.6729 7.83122L25.8041 7.70205C26.2212 7.28498 26.2212 6.60972 25.8041 6.19372C25.3871 5.77665 24.7118 5.77665 24.2958 6.19372L24.1666 6.32497C23.8072 6.68443 23.2347 6.75377 22.8208 6.4583C22.6203 6.31537 22.4153 6.17802 22.2062 6.04788C21.7742 5.77908 21.6173 5.22245 21.8125 4.75205L21.8833 4.5833C22.1084 4.0393 21.8502 3.4136 21.3062 3.18747C20.7622 2.9624 20.1386 3.22055 19.9125 3.76455L19.8416 3.93122C19.6475 4.39948 19.147 4.68178 18.6521 4.56872C18.4131 4.51432 18.1713 4.46652 17.9271 4.42705C17.4257 4.34705 17.0666 3.89317 17.0666 3.3833V3.19997C17.0666 2.61117 16.5888 2.1333 16 2.1333ZM16 7.46663C20.3505 7.46663 23.9345 10.7252 24.4604 14.9333H17.8437C17.6568 14.6095 17.3881 14.3406 17.0645 14.1534C16.7409 13.9662 16.3738 13.8673 16 13.8666C15.9993 13.8666 15.9986 13.8666 15.9979 13.8666L12.6896 8.1333C13.7077 7.70421 14.8258 7.46663 16 7.46663ZM10.8479 9.2083L14.1541 14.9333C13.9663 15.2574 13.8671 15.6253 13.8666 16C13.8679 16.3732 13.967 16.7395 14.1541 17.0625L10.8458 22.7896C8.79616 21.2309 7.46663 18.7734 7.46663 16C7.46663 13.2255 8.79691 10.7669 10.8479 9.2083ZM17.8458 17.0666H24.4604C23.9345 21.2748 20.3505 24.5333 16 24.5333C14.8258 24.5333 13.7077 24.2957 12.6896 23.8666L15.9979 18.1333C15.9986 18.1333 15.9993 18.1333 16 18.1333C16.3742 18.133 16.7417 18.0343 17.0657 17.8471C17.3897 17.6598 17.6587 17.3907 17.8458 17.0666V17.0666Z" fill="black"/>
</svg>
